<svg width="32" height="32" viewBox="0 0 32 32" fill="none" xmlns="http://www.w3.org/2000/svg">
<g clip-path="url(#clip0_1021_3195)">
<path fill-rule="evenodd" clip-rule="evenodd" d="M21.7312 23.5872C22.5302 22.7834 23.7725 21.4254 24.5394 20.5909C25.3029 19.7603 33.5417 25.3402 31.7442 26.9494L27.526 30.7256C19.4684 37.9389 -5.93908 12.5314 1.27423 4.47374L5.05042 0.255615C6.65954 -1.54182 12.2395 6.69693 11.4089 7.46037C10.5744 8.2273 9.21635 9.46962 8.4126 10.2686C5.54742 13.1169 18.8829 26.4524 21.7312 23.5872ZM27.8037 13.1421L20.5542 12.9551L31.6873 1.82193C32.1042 1.40512 32.1042 0.72924 31.6873 0.312365C31.2705 -0.104447 30.5947 -0.104447 30.1778 0.312365L19.0446 11.4456L18.8577 4.19605C18.8439 3.60924 18.3569 3.14474 17.7702 3.15855C17.1834 3.17237 16.7189 3.6593 16.7327 4.24605L16.9838 13.9786C16.9967 14.5427 17.4512 15.0027 18.0212 15.0161L27.7537 15.2671C28.3405 15.2809 28.8274 14.8164 28.8412 14.2296C28.855 13.6429 28.3905 13.1559 27.8037 13.1421Z" fill="#9135E8"/>
</g>
<defs>
<clipPath id="clip0_1021_3195">
<rect width="32" height="32" fill="white"/>
</clipPath>
</defs>
</svg>
