<svg width="42" height="42" viewBox="0 0 42 42" fill="none" xmlns="http://www.w3.org/2000/svg">
<path d="M21.882 21.336C26.8459 21.336 30.87 17.1239 30.87 11.928C30.87 6.73212 26.8459 2.52002 21.882 2.52002C16.918 2.52002 12.894 6.73212 12.894 11.928C12.894 17.1239 16.918 21.336 21.882 21.336Z" fill="#9135E8"/>
<path d="M38.892 35.28C38.892 35.196 38.85 35.112 38.85 35.028C38.724 34.44 38.43 33.936 38.0519 33.516C37.59 33.054 37.044 32.676 36.372 32.508C36.12 32.424 35.826 32.382 35.532 32.382C33.642 32.382 32.088 33.936 32.088 35.826C32.088 37.716 33.642 39.27 35.532 39.27C37.422 39.27 38.976 37.716 38.976 35.826C38.976 35.658 38.9339 35.49 38.892 35.28Z" fill="#9135E8"/>
<path d="M10.878 32.424C10.878 30.534 9.32398 28.98 7.43398 28.98C7.30798 28.98 7.18198 28.98 7.05598 28.98C7.01398 28.98 7.01398 28.98 6.97198 28.98C6.88798 28.98 6.80398 29.022 6.71998 29.022C6.67798 29.022 6.67798 29.022 6.63598 29.064C6.55198 29.064 6.46798 29.106 6.38398 29.148C6.34198 29.148 6.34198 29.148 6.34198 29.19C6.25798 29.232 6.17398 29.274 6.08998 29.274H6.04798C5.96398 29.316 5.87998 29.358 5.75398 29.4C5.66998 29.442 5.58598 29.526 5.45998 29.568C5.29198 29.694 5.08198 29.862 4.95598 30.03C4.36798 30.66 4.03198 31.458 4.03198 32.382C4.03198 34.272 5.58598 35.826 7.47598 35.826C9.36598 35.826 10.878 34.314 10.878 32.424Z" fill="#9135E8"/>
<path d="M39.9 33.138C38.85 24.696 27.888 21.966 26.586 21.672L22.008 25.284L17.43 21.672C16.464 21.882 10.332 23.394 6.71998 27.51L3.65398 16.716L2.09998 17.136L5.24998 28.392C5.87998 28.056 6.63598 27.846 7.43398 27.846C9.95398 27.846 12.012 29.904 12.012 32.424C12.012 34.734 10.29 36.624 8.10598 36.96C9.99598 37.758 12.6 38.556 16.044 39.018V28.098C16.044 28.098 21.714 28.098 25.62 30.66L25.662 39.48H26.796L26.754 30.66C30.66 28.098 36.33 28.098 36.33 28.098V31.374C37.884 31.668 39.144 32.718 39.732 34.146C39.9 33.81 39.942 33.474 39.9 33.138Z" fill="#9135E8"/>
</svg>
