<svg width="30" height="30" viewBox="0 0 30 30" fill="none" xmlns="http://www.w3.org/2000/svg">
<path d="M17.8125 12.6562C17.9368 12.6562 18.056 12.6069 18.144 12.519C18.2319 12.431 18.2812 12.3118 18.2812 12.1875V11.25C18.2812 11.1257 18.2319 11.0065 18.144 10.9185C18.056 10.8306 17.9368 10.7812 17.8125 10.7812C17.6882 10.7812 17.569 10.8306 17.481 10.9185C17.3931 11.0065 17.3438 11.1257 17.3438 11.25V12.1875C17.3438 12.3118 17.3931 12.431 17.481 12.519C17.569 12.6069 17.6882 12.6562 17.8125 12.6562Z" fill="#174EDE"/>
<path d="M18.2812 15H17.3438C17.3438 15.7641 16.2703 16.4062 15 16.4062C13.7297 16.4062 12.6562 15.7641 12.6562 15H11.7188C11.7188 16.3125 13.1578 17.3438 15 17.3438C16.8422 17.3438 18.2812 16.3125 18.2812 15Z" fill="#174EDE"/>
<path d="M12.1875 12.6562C12.3118 12.6562 12.431 12.6069 12.519 12.519C12.6069 12.431 12.6562 12.3118 12.6562 12.1875V11.25C12.6562 11.1257 12.6069 11.0065 12.519 10.9185C12.431 10.8306 12.3118 10.7812 12.1875 10.7812C12.0632 10.7812 11.944 10.8306 11.856 10.9185C11.7681 11.0065 11.7188 11.1257 11.7188 11.25V12.1875C11.7188 12.3118 11.7681 12.431 11.856 12.519C11.944 12.6069 12.0632 12.6562 12.1875 12.6562Z" fill="#174EDE"/>
<path d="M18.9891 18.9094C20.4837 17.8778 21.523 16.3097 21.8906 14.5312H22.2656C22.8248 14.5304 23.3608 14.3079 23.7562 13.9125C24.1516 13.5171 24.3741 12.981 24.375 12.4219C24.3767 12.1454 24.3229 11.8713 24.2166 11.616C24.1103 11.3608 23.9537 11.1295 23.7562 10.9359C23.5346 10.713 23.2654 10.5431 22.9687 10.4391V8.90624C22.97 8.06555 22.8371 7.23005 22.575 6.43124C23.1297 5.82795 23.4375 5.03829 23.4375 4.21874C23.4381 4.15701 23.4264 4.09578 23.4031 4.03862C23.3798 3.98147 23.3452 3.92954 23.3016 3.88589C23.2579 3.84224 23.206 3.80773 23.1489 3.7844C23.0917 3.76106 23.0305 3.74937 22.9687 3.74999H22.8281C23.2996 3.37175 23.6848 2.89708 23.9578 2.35781L24.3234 1.61718C24.3594 1.54582 24.3765 1.46646 24.3732 1.38662C24.3698 1.30679 24.3461 1.22913 24.3043 1.16103C24.2625 1.09293 24.204 1.03665 24.1343 0.997523C24.0647 0.958399 23.9861 0.937735 23.9062 0.937494H15C14.978 0.936719 14.956 0.93829 14.9344 0.942181C14.4705 0.945029 14.0077 0.988951 13.5516 1.07343C11.6959 1.4441 10.0282 2.45207 8.83745 3.92278C7.64667 5.3935 7.00772 7.23435 7.03125 9.12656V10.4391C6.62094 10.5841 6.26555 10.8525 6.01378 11.2075C5.76202 11.5625 5.62622 11.9867 5.625 12.4219C5.62587 12.981 5.84838 13.5171 6.24378 13.9125C6.63918 14.3079 7.1752 14.5304 7.73437 14.5312H8.10937C8.47704 16.3097 9.51632 17.8778 11.0109 18.9094C9.72262 19.2131 8.56716 19.9256 7.71721 20.9403C6.86727 21.955 6.36846 23.2174 6.29531 24.5391L6.09375 28.5703C6.09155 28.6339 6.10202 28.6974 6.12456 28.7569C6.14709 28.8165 6.18123 28.8709 6.225 28.9172C6.26814 28.9634 6.32041 29.0002 6.3785 29.0252C6.4366 29.0503 6.49925 29.0629 6.5625 29.0625H23.4375C23.5007 29.0629 23.5634 29.0503 23.6215 29.0252C23.6796 29.0002 23.7319 28.9634 23.775 28.9172C23.8188 28.8709 23.8529 28.8165 23.8754 28.7569C23.898 28.6974 23.9084 28.6339 23.9062 28.5703L23.7047 24.5391C23.6315 23.2174 23.1327 21.955 22.2828 20.9403C21.4328 19.9256 20.2774 19.2131 18.9891 18.9094ZM15 21.5625C14.4758 21.5618 13.9671 21.3848 13.5556 21.06C13.1441 20.7353 12.8538 20.2816 12.7312 19.7719C14.2003 20.2844 15.7997 20.2844 17.2687 19.7719C17.1462 20.2816 16.8559 20.7353 16.4444 21.06C16.0329 21.3848 15.5242 21.5618 15 21.5625ZM23.0953 11.5969C23.2042 11.7048 23.2906 11.8333 23.3493 11.975C23.4081 12.1166 23.4381 12.2685 23.4375 12.4219C23.4375 12.7327 23.314 13.0307 23.0943 13.2505C22.8745 13.4703 22.5764 13.5937 22.2656 13.5937H22.0078C22.0172 13.4391 22.0312 13.2844 22.0312 13.125V11.25H22.2656C22.42 11.2497 22.573 11.2802 22.7155 11.3397C22.8579 11.3993 22.9871 11.4867 23.0953 11.5969ZM7.73437 13.5937C7.42357 13.5937 7.1255 13.4703 6.90573 13.2505C6.68596 13.0307 6.5625 12.7327 6.5625 12.4219C6.56361 12.1114 6.68743 11.814 6.90696 11.5945C7.12649 11.3749 7.42392 11.2511 7.73437 11.25H7.96875V13.125C7.96875 13.2844 7.98281 13.4391 7.99219 13.5937H7.73437ZM8.90625 13.125V10.8703L10.275 7.44843C10.3784 7.18622 10.5586 6.96134 10.7919 6.80326C11.0253 6.64518 11.3009 6.56126 11.5828 6.56249H15.4406C16.034 7.36002 16.791 8.02148 17.6609 8.50251C18.5308 8.98354 19.4934 9.27302 20.4844 9.35156L21.0937 10.8703V13.125C21.0937 14.7412 20.4517 16.2911 19.3089 17.4339C18.1661 18.5767 16.6162 19.2187 15 19.2187C13.3838 19.2187 11.8339 18.5767 10.6911 17.4339C9.54827 16.2911 8.90625 14.7412 8.90625 13.125ZM10.3125 28.125H7.05469L7.23281 24.5859C7.29873 23.3216 7.82962 22.1263 8.72344 21.2297C9.18505 21.3867 9.58621 21.6837 9.87104 22.0795C10.1559 22.4752 10.3102 22.9499 10.3125 23.4375V28.125ZM19.6875 28.125V23.4375C19.6898 22.9499 19.8441 22.4752 20.129 22.0795C20.4138 21.6837 20.8149 21.3867 21.2766 21.2297C22.1704 22.1263 22.7013 23.3216 22.7672 24.5859L22.9453 28.125H19.6875Z" fill="#174EDE"/>
</svg>
