<svg width="32" height="32" viewBox="0 0 32 32" fill="none" xmlns="http://www.w3.org/2000/svg">
<path d="M29.393 23.36C28.519 22.627 23.393 19.381 22.541 19.53C22.141 19.601 21.835 19.942 21.016 20.919C20.6372 21.3999 20.2213 21.8503 19.772 22.266C18.9488 22.0671 18.1519 21.7718 17.398 21.386C14.4413 19.9465 12.0526 17.5571 10.614 14.6C10.2282 13.8461 9.93286 13.0492 9.734 12.226C10.1497 11.7767 10.6001 11.3608 11.081 10.982C12.057 10.163 12.399 9.859 12.47 9.457C12.619 8.603 9.37 3.479 8.64 2.605C8.334 2.243 8.056 2 7.7 2C6.668 2 2 7.772 2 8.52C2 8.581 2.1 14.59 9.689 22.311C17.41 29.9 23.419 30 23.48 30C24.228 30 30 25.332 30 24.3C30 23.944 29.757 23.666 29.393 23.36Z" fill="#4936F5"/>
<path d="M23 15H25C24.9976 12.879 24.154 10.8456 22.6542 9.34578C21.1544 7.846 19.121 7.00238 17 7V9C18.5908 9.00159 20.116 9.63424 21.2409 10.7591C22.3658 11.884 22.9984 13.4092 23 15Z" fill="#4936F5"/>
<path d="M28 15H30C29.996 11.5534 28.6251 8.24911 26.188 5.812C23.7509 3.37488 20.4466 2.00397 17 2V4C19.9163 4.00344 22.7122 5.16347 24.7744 7.22563C26.8365 9.28778 27.9966 12.0837 28 15Z" fill="#4936F5"/>
</svg>
