<svg width="32" height="32" viewBox="0 0 32 32" fill="none" xmlns="http://www.w3.org/2000/svg">
<g clip-path="url(#clip0_1032_512)">
<path fill-rule="evenodd" clip-rule="evenodd" d="M27.3727 3.11898C27.7892 2.70248 28.4645 2.70248 28.881 3.11898C29.2975 3.53548 29.2975 4.21079 28.881 4.62729L25.2548 8.25341L28.881 11.8796C29.2975 12.2961 29.2975 12.9714 28.881 13.3879C28.4645 13.8044 27.7892 13.8044 27.3727 13.3879L23.7465 9.76173L20.1204 13.3879C19.7039 13.8044 19.0286 13.8044 18.6121 13.3879C18.1956 12.9714 18.1956 12.296 18.6121 11.8795L22.2382 8.25335L18.6121 4.62723C18.1956 4.21073 18.1956 3.53541 18.6121 3.11891C19.0286 2.70241 19.7039 2.70241 20.1204 3.11891L23.7465 6.74504L27.3727 3.11898ZM8.41285 10.2686C9.2166 9.46954 10.5747 8.22723 11.4091 7.46029C12.2397 6.69679 6.65978 -1.54196 5.05066 0.255538L1.27447 4.47373C-5.93884 12.5314 19.4687 37.9389 27.5263 30.7255L31.7445 26.9494C33.5419 25.3402 25.3032 19.7603 24.5397 20.5909C23.7727 21.4254 22.5304 22.7834 21.7313 23.5872C18.883 26.4524 5.54766 13.117 8.41285 10.2686Z" fill="#FFF5ED"/>
</g>
<defs>
<clipPath id="clip0_1032_512">
<rect width="32" height="32" fill="white"/>
</clipPath>
</defs>
</svg>
