<svg width="22" height="16" viewBox="0 0 22 16" fill="none" xmlns="http://www.w3.org/2000/svg">
<path d="M0 0H22V2H0V0ZM0 14H22V16H0V14ZM18.6217 10.9136L18.448 10.0436L16.4994 10.0435L16.1899 10.907L14.6275 10.9105C15.6316 8.5036 16.3767 6.7206 16.8628 5.56169C16.9898 5.25902 17.2156 5.10462 17.5482 5.10699C17.802 5.10888 18.2168 5.10912 18.7927 5.10771L20 10.9108L18.6217 10.9136ZM16.9376 8.8518H18.1936L17.7248 6.6715L16.9376 8.8518ZM6.87203 5.10561L8.44245 5.10764L6.01511 10.9136L4.42535 10.9129C3.88785 8.8424 3.49315 7.3073 3.24125 6.3076C3.16402 6.001 3.01042 5.787 2.71519 5.68577C2.45195 5.59551 2.01355 5.45594 1.4 5.26707V5.10771C2.54718 5.10757 3.38339 5.10757 3.90863 5.10771C4.34299 5.10784 4.59619 5.31703 4.67765 5.74655C4.75942 6.1779 4.96599 7.2743 5.29735 9.0359L6.87203 5.10561ZM10.5994 5.10765L9.3588 10.913L7.86434 10.9108C7.89383 10.7698 8.30682 8.8347 9.1033 5.10561L10.5994 5.10765ZM13.6307 5C14.0773 5 14.6405 5.13846 14.9652 5.26707L14.703 6.4706C14.41 6.3532 13.9284 6.1944 13.5228 6.2006C12.933 6.2097 12.569 6.4566 12.569 6.6936C12.569 7.0783 13.2015 7.272 13.8528 7.6929C14.5956 8.1729 14.6937 8.603 14.6845 9.0713C14.6739 10.0422 13.8528 11 12.12 11C11.3286 10.9882 11.0444 10.9219 10.3995 10.6936L10.6718 9.4376C11.3282 9.712 11.6066 9.7991 12.1675 9.7991C12.6816 9.7991 13.1229 9.5918 13.1267 9.2308C13.1294 8.974 12.972 8.847 12.395 8.5293C11.8181 8.2117 11.0095 7.7726 11.0199 6.8889C11.0332 5.75821 12.1066 5 13.6307 5Z" fill="white"/>
</svg>
