<svg width="32" height="32" viewBox="0 0 32 32" fill="none" xmlns="http://www.w3.org/2000/svg">
<g clip-path="url(#clip0_899_9044)">
<path d="M11.7162 29.2591C18.1869 29.2591 23.4324 27.622 23.4324 25.6025C23.4324 23.583 18.1869 21.9459 11.7162 21.9459C5.24552 21.9459 0 23.583 0 25.6025C0 27.622 5.24552 29.2591 11.7162 29.2591Z" fill="black"/>
<path d="M17.8127 19.7006C17.2168 18.5716 16.0439 17.8566 14.7644 17.8566H8.65546C7.37596 17.8566 6.20309 18.5653 5.60725 19.7006C4.77933 21.2748 4.29639 23.1753 4.29639 25.2325C4.29639 26.1357 4.39047 27.0138 4.56609 27.8417C6.54178 28.3183 9.01924 28.6006 11.7099 28.6006C14.4007 28.6006 16.8781 28.3183 18.8538 27.8417C19.0294 27.0138 19.1235 26.1357 19.1235 25.2325C19.1298 23.1815 18.6406 21.2748 17.8127 19.7006Z" fill="#FE7A36"/>
<path d="M18.1325 19.5375C17.4739 18.283 16.1882 17.5053 14.7707 17.5053H8.66171C7.2505 17.5053 5.95846 18.283 5.29989 19.5375C4.41553 21.2184 3.94513 23.1878 3.94513 25.2387C3.94513 26.098 4.02667 26.9385 4.18974 27.7538C4.43435 27.8166 4.6915 27.8793 4.95493 27.9357C4.7605 27.0702 4.66014 26.1607 4.66014 25.2387C4.66014 23.307 5.09919 21.4504 5.93337 19.8699C6.46649 18.8538 7.51393 18.2203 8.66171 18.2203H14.7707C15.9185 18.2203 16.9659 18.8538 17.499 19.8699C18.3332 21.4504 18.7723 23.307 18.7723 25.2387C18.7723 26.1607 18.6719 27.0702 18.4775 27.9357C18.7409 27.8793 18.998 27.8166 19.2427 27.7538C19.4057 26.9385 19.4873 26.098 19.4873 25.2387C19.481 23.1878 19.0169 21.2184 18.1325 19.5375Z" fill="black"/>
<path d="M11.7162 25.7969C10.3301 25.7969 9.20111 26.9259 9.20111 28.312C9.20111 28.381 9.20738 28.45 9.20738 28.519C10.0165 28.5755 10.8507 28.6005 11.7162 28.6005C12.5755 28.6005 13.4159 28.5692 14.225 28.519C14.2313 28.45 14.2313 28.381 14.2313 28.312C14.2313 26.9259 13.1023 25.7969 11.7162 25.7969Z" fill="white"/>
<path d="M19.6566 27.8166C19.6566 27.8166 19.3555 28.5504 19.1925 28.9393C19.0858 29.1902 18.9792 29.4285 18.86 29.6606C18.628 30.1247 18.3834 30.5387 18.1325 30.8899C18.0196 31.0467 17.8377 31.1408 17.6433 31.1408C17.0411 31.1408 16.4704 31.0969 15.9624 31.0153C15.4167 30.9275 14.9337 30.8021 14.5574 30.639C14.3442 30.5512 14.2062 30.3379 14.2062 30.1059V29.441C14.2062 29.209 14.3442 28.9957 14.5574 28.9079C15.0404 28.7072 15.6989 28.5504 16.4453 28.4689C16.5143 28.2744 16.5833 28.08 16.6648 27.8856C16.8279 27.4904 16.9471 27.1016 17.129 26.7629" fill="#FE7A36"/>
<path d="M19.6566 27.8166C19.6566 27.8166 19.3555 28.5504 19.1925 28.9393C19.0858 29.1902 18.9792 29.4285 18.86 29.6606C18.628 30.1247 18.3834 30.5387 18.1325 30.8899C18.0196 31.0467 17.8377 31.1408 17.6433 31.1408C17.0411 31.1408 16.4704 31.0969 15.9624 31.0153C15.4167 30.9275 14.9337 30.8021 14.5574 30.639C14.3442 30.5512 14.2062 30.3379 14.2062 30.1059V29.441C14.2062 29.209 14.3442 28.9957 14.5574 28.9079C15.0404 28.7072 15.6989 28.5504 16.4453 28.4689C16.5143 28.2744 16.5833 28.08 16.6648 27.8856C16.8279 27.4904 16.9471 27.1016 17.129 26.7629" fill="#FE7A36"/>
<path d="M17.637 31.5045C17.0349 31.5045 16.4453 31.4606 15.8996 31.3728C15.3226 31.2787 14.8208 31.147 14.4132 30.9777C14.0682 30.8334 13.8424 30.4947 13.8424 30.1184V29.4536C13.8424 29.0772 14.0682 28.7386 14.4132 28.5943C14.8836 28.3999 15.492 28.2493 16.1756 28.1615C16.2258 28.0298 16.276 27.9044 16.3261 27.7727C16.3826 27.6409 16.4265 27.5155 16.4767 27.3838C16.5708 27.1266 16.6774 26.8569 16.8091 26.6123C16.9032 26.443 17.1227 26.3803 17.292 26.4743C17.4677 26.5684 17.5304 26.7879 17.43 26.9573C17.3171 27.158 17.2293 27.3901 17.1415 27.6409C17.0913 27.7789 17.0412 27.9106 16.9847 28.0486C16.9094 28.2368 16.8342 28.4249 16.7715 28.6131C16.7276 28.7448 16.6084 28.8326 16.4767 28.8514C15.7679 28.9267 15.147 29.071 14.6891 29.2654C14.6076 29.2968 14.5574 29.3783 14.5574 29.4724V30.1372C14.5574 30.225 14.6076 30.3066 14.6891 30.3442C15.0404 30.4885 15.4982 30.6139 16.0125 30.6954C16.5268 30.777 17.0725 30.8209 17.637 30.8209C17.7185 30.8209 17.7875 30.7832 17.8377 30.7205C18.0823 30.3756 18.3207 29.9741 18.5402 29.5351C18.6593 29.2905 18.766 29.0647 18.86 28.8389L19.3242 27.7162L19.9827 27.9859L19.5186 29.1086C19.4183 29.3532 19.3054 29.5978 19.1799 29.855C18.9479 30.3254 18.6907 30.7582 18.421 31.1345C18.2391 31.354 17.9506 31.5045 17.637 31.5045Z" fill="black"/>
<path d="M7.72713 8.14744C5.80161 7.35089 4.87961 5.11804 5.67616 3.19252C6.47272 1.267 8.70556 0.345008 10.6311 1.14156C12.5566 1.93811 13.4786 4.17096 12.682 6.09648C11.8792 8.022 9.65264 8.94399 7.72713 8.14744Z" fill="#FE7A36"/>
<path d="M9.1697 8.79344C8.63658 8.79344 8.09718 8.68681 7.58915 8.47983C5.47547 7.60175 4.47194 5.17446 5.34375 3.06078C6.22184 0.94083 8.64912 -0.0626985 10.7628 0.809116C12.8765 1.6872 13.88 4.11449 13.0082 6.22817C12.588 7.25051 11.7852 8.04079 10.7628 8.46729C10.2485 8.68681 9.70283 8.79344 9.1697 8.79344ZM9.18225 1.21053C7.83376 1.21053 6.54799 2.00708 6.00232 3.33048C5.27476 5.08038 6.10894 7.09371 7.85885 7.82127C8.70557 8.1725 9.63384 8.1725 10.4868 7.815C11.3398 7.46376 11.9984 6.8052 12.3496 5.95847C13.0772 4.20857 12.243 2.19524 10.4931 1.46768C10.0603 1.29206 9.61502 1.21053 9.18225 1.21053Z" fill="black"/>
<path d="M8.54879 6.15918C7.71461 5.81422 7.31947 4.8546 7.66444 4.02041C8.0094 3.18623 8.96902 2.79109 9.8032 3.13605C10.6374 3.48102 11.0325 4.44064 10.6876 5.27482C10.3426 6.10273 9.38298 6.49787 8.54879 6.15918Z" fill="#9C2410"/>
<path d="M26.399 15.8808C24.4735 15.0843 23.5515 12.8514 24.348 10.9259C25.1446 9.0004 27.3774 8.07841 29.303 8.87496C31.2285 9.67151 32.1505 11.9044 31.3539 13.8299C30.5574 15.7554 28.3308 16.6774 26.399 15.8808Z" fill="#FE7A36"/>
<path d="M27.8479 16.5269C27.321 16.5269 26.7816 16.4265 26.2673 16.2133C24.1536 15.3352 23.1501 12.9079 24.0219 10.7942C24.9 8.68055 27.3273 7.67702 29.441 8.54883C31.5546 9.42692 32.5582 11.8542 31.6864 13.9679C31.0215 15.561 29.4723 16.5269 27.8479 16.5269ZM26.537 15.5547C28.2869 16.2823 30.3002 15.4481 31.0278 13.6982C31.7554 11.9483 30.9212 9.93496 29.1713 9.2074C28.3308 8.85616 27.3963 8.86244 26.5433 9.21367C25.6903 9.5649 25.0317 10.2235 24.6805 11.0702C23.9529 12.8138 24.7871 14.8272 26.537 15.5547Z" fill="black"/>
<path d="M27.227 13.8926C26.3928 13.5477 25.9976 12.5881 26.3426 11.7539C26.6876 10.9197 27.6472 10.5246 28.4814 10.8695C29.3155 11.2145 29.7107 12.1741 29.3657 13.0083C29.0208 13.8362 28.0611 14.2376 27.227 13.8926Z" fill="#9C2410"/>
<path d="M17.5053 28.3497L5.1995 23.2505C1.86904 21.8707 0.288481 18.0573 1.66833 14.7268L2.19518 13.4599C4.97997 6.72995 12.6946 3.53747 19.4182 6.32226C26.1481 9.10706 29.3406 16.8217 26.5558 23.5516L26.029 24.8185C24.6491 28.149 20.8357 29.7296 17.5053 28.3497Z" fill="#FE7A36"/>
<path d="M19.9953 29.2027C19.1172 29.2027 18.2328 29.0333 17.3736 28.6758L5.06152 23.5829C1.55545 22.1341 -0.11292 18.1011 1.33592 14.5951L1.86278 13.3281C3.2489 9.98511 5.8518 7.38221 9.1948 6.00236C12.5378 4.61624 16.2195 4.61624 19.5562 6.00236C26.4555 8.86242 29.742 16.7966 26.8883 23.6958L26.3614 24.9628C25.2638 27.6033 22.6923 29.2027 19.9953 29.2027ZM14.3755 5.66994C12.7134 5.66994 11.0513 5.99609 9.4645 6.65465C6.29711 7.96551 3.8322 10.4304 2.52134 13.5978L1.99449 14.8648C0.696174 18.0071 2.18892 21.6198 5.33122 22.9244L17.6433 28.0235C20.7855 29.3281 24.3983 27.8291 25.7028 24.6868L26.2297 23.4198C28.9392 16.8844 25.822 9.36418 19.2865 6.65465C17.6997 5.99609 16.0376 5.66994 14.3755 5.66994Z" fill="black"/>
<path d="M13.303 25.2889C15.6238 25.2889 17.5053 23.4075 17.5053 21.0867C17.5053 18.7658 15.6238 16.8844 13.303 16.8844C10.9821 16.8844 9.10071 18.7658 9.10071 21.0867C9.10071 23.4075 10.9821 25.2889 13.303 25.2889Z" fill="white"/>
<path d="M13.303 21.4442C13.2591 21.4442 13.2089 21.4379 13.165 21.4191C12.9831 21.3438 12.8953 21.1368 12.9706 20.9549L14.3504 17.6245C14.4257 17.4426 14.6327 17.3548 14.8146 17.43C14.9964 17.5053 15.0843 17.7123 15.009 17.8942L13.6291 21.2246C13.579 21.3563 13.4472 21.4442 13.303 21.4442Z" fill="black"/>
<path d="M14.4884 18.2266C13.8674 17.9694 13.5727 17.2544 13.8298 16.6335C14.087 16.0125 14.802 15.7177 15.4229 15.9749C16.0438 16.2321 16.3386 16.9471 16.0815 17.568C15.8243 18.1889 15.1093 18.4837 14.4884 18.2266Z" fill="black"/>
<path d="M14.9525 18.6782C14.7518 18.6782 14.5449 18.6405 14.3504 18.559C13.9616 18.3959 13.6605 18.0949 13.4974 17.706C13.3344 17.3171 13.3344 16.8906 13.4974 16.5018C13.8298 15.699 14.7518 15.3164 15.5547 15.6488C15.9435 15.8118 16.2446 16.1129 16.4077 16.5018C16.5707 16.8906 16.5707 17.3171 16.4077 17.706C16.2446 18.0949 15.9435 18.3959 15.5547 18.559C15.3602 18.6343 15.1595 18.6782 14.9525 18.6782ZM14.9588 16.2446C14.6201 16.2446 14.3002 16.4453 14.1623 16.7777C14.0745 16.991 14.0745 17.2231 14.1623 17.4363C14.2501 17.6496 14.4131 17.8126 14.6264 17.9004C14.8396 17.9883 15.0717 17.9883 15.285 17.9004C15.4982 17.8126 15.6613 17.6496 15.7491 17.4363C15.8369 17.2231 15.8369 16.991 15.7491 16.7777C15.6613 16.5645 15.4982 16.4014 15.285 16.3136C15.1783 16.2634 15.0654 16.2446 14.9588 16.2446Z" fill="black"/>
<path d="M12.1301 19.8071L11.528 21.2622C11.1956 22.0651 11.5782 22.9871 12.381 23.3195C13.1838 23.6519 14.1058 23.2693 14.4382 22.4665L15.0403 21.0114L12.1301 19.8071Z" fill="#FF4023"/>
<path d="M12.9831 23.7962C12.7385 23.7962 12.4876 23.7523 12.2493 23.6519C11.7726 23.4575 11.4026 23.0812 11.2019 22.6045C11.0074 22.1278 11.0074 21.6009 11.2019 21.1243L11.804 19.6692C11.8792 19.4873 12.0862 19.3995 12.2681 19.4747L15.1783 20.679C15.3602 20.7542 15.448 20.9612 15.3728 21.1431L14.7707 22.5982C14.457 23.3446 13.7358 23.7962 12.9831 23.7962ZM12.3246 20.2713L11.8604 21.394C11.735 21.695 11.735 22.0274 11.8604 22.3285C11.9859 22.6296 12.2179 22.8616 12.519 22.9871C13.1399 23.2442 13.8549 22.9494 14.1121 22.3285L14.5762 21.2058L12.3246 20.2713Z" fill="black"/>
<path d="M14.1487 22.9282C14.3689 22.3969 13.9377 21.7135 13.1856 21.4017C12.4334 21.0899 11.6451 21.2679 11.4249 21.7992C11.2047 22.3305 11.6359 23.014 12.388 23.3257C13.1402 23.6375 13.9285 23.4595 14.1487 22.9282Z" fill="#FFCEA9"/>
<path d="M12.9706 23.7899C12.726 23.7899 12.4751 23.7397 12.243 23.6457C11.4967 23.3383 11.02 22.5857 11.0576 21.7766C11.0639 21.6951 11.0953 21.6135 11.1517 21.5508C11.6974 20.955 12.5692 20.7605 13.3093 21.0678C14.0557 21.3752 14.5323 22.1278 14.4947 22.9369C14.4884 23.0185 14.4571 23.1 14.4006 23.1627C14.0306 23.5704 13.5037 23.7899 12.9706 23.7899ZM11.7726 21.9397C11.804 22.3975 12.0862 22.8115 12.519 22.9871C12.9455 23.1627 13.441 23.0749 13.786 22.7738C13.7546 22.316 13.4724 21.902 13.0396 21.7264C12.6131 21.5508 12.1176 21.6386 11.7726 21.9397Z" fill="black"/>
<path d="M23.0247 21.5759C23.6482 21.5759 24.1536 21.0705 24.1536 20.447C24.1536 19.8234 23.6482 19.318 23.0247 19.318C22.4011 19.318 21.8957 19.8234 21.8957 20.447C21.8957 21.0705 22.4011 21.5759 23.0247 21.5759Z" fill="black"/>
<path d="M6.88666 14.8899C7.51017 14.8899 8.01563 14.3844 8.01563 13.7609C8.01563 13.1374 7.51017 12.632 6.88666 12.632C6.26315 12.632 5.75769 13.1374 5.75769 13.7609C5.75769 14.3844 6.26315 14.8899 6.88666 14.8899Z" fill="black"/>
<path d="M6.77382 23.953C6.77382 23.953 6.21561 23.3948 5.91455 23.0937C5.03646 22.2156 4.12074 21.5759 3.38691 21.2686C3.16739 21.1808 2.91651 21.2247 2.74716 21.394L2.27676 21.8644C2.10741 22.0338 2.06351 22.2846 2.15132 22.5042C2.45238 23.238 3.0984 24.1537 3.97648 25.0318C4.27754 25.3329 4.5347 25.6527 4.83575 25.8911" fill="#FE7A36"/>
<path d="M4.83575 26.2423C4.76049 26.2423 4.67895 26.2172 4.61623 26.167C4.39671 25.9914 4.20228 25.7844 4.01411 25.5775C3.92003 25.4771 3.82595 25.3768 3.7256 25.2764C2.85378 24.4046 2.15759 23.4387 1.82517 22.6359C1.67464 22.2784 1.75618 21.877 2.02587 21.6073L2.49628 21.1369C2.76598 20.8672 3.16739 20.7919 3.52489 20.9361C4.32772 21.2686 5.29361 21.9585 6.16543 22.8366L7.0247 23.7021C7.16268 23.8401 7.16268 24.0659 7.0247 24.2039C6.88671 24.3419 6.66092 24.3419 6.52293 24.2039L5.66366 23.3446C4.85457 22.5355 3.97648 21.8958 3.2552 21.601C3.16739 21.5634 3.06703 21.5822 3.00431 21.6449L2.53391 22.1153C2.47119 22.178 2.45237 22.2784 2.49001 22.3662C2.79106 23.0875 3.42454 23.9656 4.23364 24.7746C4.34026 24.8813 4.44061 24.9879 4.53469 25.0882C4.71658 25.2827 4.88593 25.4646 5.06155 25.6088C5.21207 25.7343 5.23716 25.9538 5.11799 26.1106C5.04273 26.1984 4.94238 26.2423 4.83575 26.2423Z" fill="black"/>
<path d="M3.02313 22.3411C3.3681 22.3411 3.65034 22.6234 3.65034 22.9683L3.02313 22.3411Z" fill="#FE7A36"/>
<path d="M3.65658 23.1502C3.55623 23.1502 3.48096 23.0687 3.48096 22.9746C3.48096 22.7237 3.28026 22.523 3.02938 22.523C2.92902 22.523 2.85376 22.4415 2.85376 22.3474C2.85376 22.2533 2.9353 22.1718 3.02938 22.1718C3.47469 22.1718 3.83847 22.5355 3.83847 22.9808C3.8322 23.0687 3.75066 23.1502 3.65658 23.1502Z" fill="black"/>
</g>
<defs>
<clipPath id="clip0_899_9044">
<rect width="32" height="32" fill="white"/>
</clipPath>
</defs>
</svg>
