<svg width="18" height="18" viewBox="0 0 18 18" fill="none" xmlns="http://www.w3.org/2000/svg">
<path d="M7.27862 9.92989C7.2221 9.92989 6.03644 9.93025 5.4896 9.92971C5.20808 9.92953 5.10764 9.82837 5.10764 9.54505C5.10728 8.81731 5.1071 8.08957 5.10764 7.36183C5.10782 7.08211 5.21402 6.97537 5.49194 6.97519C6.03878 6.97483 7.21796 6.97501 7.27862 6.97501C7.27862 6.92515 7.27844 5.87449 7.27862 5.39065C7.27898 4.67533 7.4066 3.99061 7.77002 3.36367C8.14208 2.72197 8.68352 2.28241 9.37742 2.02825C9.82184 1.86535 10.2832 1.80037 10.7548 1.80001C11.3448 1.79965 11.9349 1.80019 12.5251 1.80127C12.7787 1.80163 12.8912 1.91377 12.8917 2.16919C12.8928 2.85373 12.8928 3.53827 12.8917 4.22263C12.8914 4.48075 12.7836 4.58443 12.5242 4.58731C12.0405 4.59253 11.5565 4.58929 11.0734 4.60873C10.5854 4.60873 10.3287 4.84705 10.3287 5.35213C10.317 5.88637 10.3239 6.42115 10.3239 6.97483C10.3696 6.97483 11.7583 6.97465 12.4074 6.97483C12.7022 6.97483 12.803 7.07617 12.803 7.37263C12.803 8.09641 12.8028 8.82037 12.8023 9.54415C12.8021 9.83629 12.7074 9.92953 12.4108 9.92971C11.7617 9.93007 10.3784 9.92989 10.3179 9.92989V15.788C10.3179 16.1003 10.2196 16.1998 9.91148 16.1998C9.16016 16.1998 8.40866 16.2 7.65734 16.1998C7.385 16.1998 7.2788 16.094 7.2788 15.8216C7.27862 13.9138 7.27862 9.99685 7.27862 9.92989Z" fill="#3D6AD6"/>
</svg>
