<svg width="30" height="30" viewBox="0 0 30 30" fill="none" xmlns="http://www.w3.org/2000/svg">
<path d="M15.4317 15.4533C15.3726 15.4532 15.3144 15.4383 15.2626 15.4098C15.2108 15.3814 15.167 15.3403 15.1352 15.2904C15.0933 15.2691 15.047 15.258 15 15.258C14.953 15.258 14.9067 15.2691 14.8648 15.2904C14.8239 15.3545 14.7633 15.4037 14.6921 15.4305C14.621 15.4573 14.543 15.4603 14.47 15.439C14.397 15.4177 14.3328 15.3734 14.2871 15.3126C14.2415 15.2518 14.2168 15.1778 14.2167 15.1017C14.2167 14.6522 14.8446 14.5549 15 14.5549C15.1554 14.5549 15.7833 14.6522 15.7833 15.1017C15.7833 15.195 15.7462 15.2844 15.6803 15.3503C15.6144 15.4162 15.5249 15.4533 15.4317 15.4533Z" fill="#C52B09"/>
<path d="M12.4999 10.7299C11.7437 10.5165 10.9372 10.5671 10.2136 10.8734C10.2811 11.0119 10.1093 11.4884 10.0495 11.5617C10.1887 11.5712 10.3283 11.5553 10.4618 11.5148C11.0796 11.3974 11.7125 11.3826 12.3352 11.471C12.4286 11.4812 12.5226 11.4565 12.599 11.4017C12.6755 11.3469 12.729 11.2658 12.7493 11.174C12.7696 11.0822 12.7553 10.9861 12.7092 10.9041C12.663 10.8222 12.5883 10.7601 12.4992 10.7299H12.4999Z" fill="#C52B09"/>
<path d="M15 18.7763C14.0794 18.7763 13.5884 18.0872 13.4355 17.4422C13.4027 17.3164 13.3988 17.1847 13.4241 17.0572C13.4494 16.9296 13.5033 16.8095 13.5818 16.7058C13.6416 16.6278 13.7182 16.5643 13.806 16.5202C13.8938 16.4761 13.9905 16.4524 14.0887 16.451H15.9112C16.0095 16.4524 16.1062 16.4761 16.194 16.5202C16.2818 16.5643 16.3584 16.6278 16.4182 16.7058C16.4965 16.8092 16.5504 16.929 16.5758 17.0562C16.6012 17.1834 16.5975 17.3147 16.5649 17.4403C16.4116 18.0872 15.9206 18.7763 15 18.7763ZM14.1255 17.1541C14.1096 17.1949 14.1077 17.2399 14.1202 17.2819C14.1637 17.4661 14.3576 18.0731 15 18.0731C15.6424 18.0731 15.8362 17.4661 15.8803 17.2802C15.8925 17.2387 15.8904 17.1943 15.8744 17.1541H14.1255Z" fill="#C52B09"/>
<path d="M10.4227 13.7374C10.3535 13.7373 10.286 13.7168 10.2285 13.6784C10.171 13.6401 10.126 13.5857 10.0993 13.522C10.0725 13.4583 10.0651 13.3881 10.078 13.3202C10.0909 13.2523 10.1236 13.1897 10.1719 13.1402C10.5677 12.7348 11.2348 12.2496 12.4519 12.7144C12.5355 12.7501 12.6021 12.8168 12.6376 12.9005C12.6731 12.9842 12.6748 13.0784 12.6423 13.1633C12.6098 13.2483 12.5457 13.3173 12.4634 13.356C12.381 13.3946 12.287 13.3999 12.2009 13.3706C11.3866 13.0589 10.9868 13.3118 10.6753 13.6308C10.6425 13.6646 10.6032 13.6914 10.5598 13.7098C10.5164 13.7281 10.4698 13.7375 10.4227 13.7374Z" fill="#C52B09"/>
<path d="M11.6123 14.7375C12.0092 14.7375 12.3309 14.4158 12.3309 14.0189C12.3309 13.622 12.0092 13.3003 11.6123 13.3003C11.2155 13.3003 10.8937 13.622 10.8937 14.0189C10.8937 14.4158 11.2155 14.7375 11.6123 14.7375Z" fill="#C52B09"/>
<path d="M20.1181 11.0459C19.7251 10.8204 19.2909 10.6763 18.8412 10.622C18.3914 10.5677 17.9354 10.6044 17.5001 10.7299C17.4127 10.7589 17.3388 10.8188 17.2924 10.8984C17.246 10.978 17.2303 11.0717 17.2481 11.1621C17.2655 11.2566 17.318 11.341 17.3951 11.3984C17.4722 11.4557 17.5682 11.4817 17.6637 11.471C18.2863 11.3825 18.9193 11.3974 19.5371 11.5148C19.9735 11.632 20.1546 11.5319 20.2275 11.4073C20.2592 11.3445 20.2656 11.2719 20.2452 11.2046C20.2248 11.1373 20.1793 11.0805 20.1181 11.0459Z" fill="#C52B09"/>
<path d="M19.5773 13.7374C19.5304 13.7374 19.484 13.7281 19.4408 13.7099C19.3975 13.6917 19.3584 13.665 19.3256 13.6315C19.0144 13.3125 18.6145 13.0596 17.8001 13.3713C17.7566 13.3899 17.7098 13.3995 17.6625 13.3995C17.6152 13.3996 17.5684 13.3901 17.5249 13.3716C17.4813 13.3532 17.4419 13.3261 17.4091 13.2921C17.3763 13.258 17.3506 13.2177 17.3337 13.1736C17.3169 13.1294 17.309 13.0823 17.3108 13.035C17.3125 12.9878 17.3238 12.9413 17.3439 12.8985C17.364 12.8557 17.3925 12.8174 17.4278 12.7859C17.463 12.7544 17.5043 12.7303 17.5491 12.7151C18.7657 12.2501 19.4332 12.7357 19.8291 13.1409C19.8774 13.1904 19.9101 13.2531 19.9229 13.3211C19.9358 13.3891 19.9284 13.4594 19.9015 13.5231C19.8746 13.5869 19.8295 13.6413 19.7719 13.6795C19.7142 13.7178 19.6465 13.7382 19.5773 13.7381V13.7374Z" fill="#C52B09"/>
<path d="M18.3877 14.7375C18.7845 14.7375 19.1063 14.4158 19.1063 14.0189C19.1063 13.622 18.7845 13.3003 18.3877 13.3003C17.9908 13.3003 17.6691 13.622 17.6691 14.0189C17.6691 14.4158 17.9908 14.7375 18.3877 14.7375Z" fill="#C52B09"/>
<path d="M26.0567 21.8203C25.801 17.659 24.9748 12.5892 24.481 9.55993L24.3872 8.98313C23.7553 5.09133 20.5484 0.902817 15 0.902817C9.45165 0.902817 6.2447 5.09133 5.61306 8.98313L5.51931 9.55993C5.02525 12.5892 4.19908 17.659 3.94337 21.8203C3.7247 25.376 3.74744 28.6095 6.30494 29.1748C6.32921 29.2689 6.37009 29.358 6.42564 29.4377C6.50208 29.5436 6.60251 29.6298 6.71869 29.6894C6.83488 29.7489 6.96352 29.7801 7.09408 29.7804H22.906C23.0365 29.7801 23.1652 29.7489 23.2813 29.6894C23.3975 29.6298 23.4979 29.5436 23.5744 29.4377C23.6299 29.358 23.6708 29.2689 23.6951 29.1748C26.2526 28.6095 26.2753 25.376 26.0567 21.8203ZM15 2.34375C19.5771 2.34375 22.111 5.90625 22.5281 9.21446C22.5381 9.29334 22.521 9.37327 22.4797 9.44119C22.4383 9.50911 22.3752 9.56102 22.3006 9.58843C22.2259 9.61585 22.1442 9.61716 22.0687 9.59214C21.9933 9.56713 21.9285 9.51727 21.885 9.45071C20.5055 7.3411 18.616 4.45313 15 4.45313C11.3841 4.45313 9.49455 7.3411 8.11502 9.45024C8.07153 9.5168 8.00677 9.56666 7.93129 9.59167C7.85582 9.61669 7.7741 9.61538 7.69947 9.58796C7.62483 9.56055 7.5617 9.50864 7.52037 9.44072C7.47903 9.3728 7.46194 9.29287 7.47189 9.21399C7.88931 5.90461 10.4229 2.34375 15 2.34375ZM10.2553 24.0776C10.3395 24.0118 10.4433 23.9761 10.5502 23.9761C10.5965 23.9761 10.6426 23.9827 10.687 23.9956C10.761 24.0166 10.8288 24.055 10.885 24.1076C10.9411 24.1601 10.9839 24.2253 11.0098 24.2977C11.4399 25.4815 11.8899 26.8584 12.1917 27.8053V27.807C12.1936 27.812 12.1942 27.8175 12.1934 27.8228C12.1927 27.8282 12.1907 27.8333 12.1875 27.8377C12.1844 27.8425 12.1802 27.8464 12.1752 27.8492C12.1702 27.852 12.1646 27.8535 12.1589 27.8536C11.8336 27.8754 11.4727 27.9162 11.0906 27.9598C10.0327 28.0802 8.58283 28.245 8.22494 27.8602C8.19658 27.8295 8.12064 27.7484 8.16587 27.5056C8.33908 26.5767 9.51048 24.6541 10.2553 24.0776ZM8.19142 14.1136C9.31923 13.4154 10.1245 12.1552 10.9739 10.8246C12.3007 8.74594 13.6727 6.59672 16.421 6.32813C16.5457 6.31831 16.6701 6.35033 16.7746 6.41914C16.8791 6.48795 16.9576 6.58961 16.9978 6.70805C17.6306 8.4211 18.754 9.55758 19.744 10.5605C20.8006 11.6306 21.7127 12.5562 21.826 13.9249C21.6642 15.7737 21.2918 18.0788 19.861 19.5872C19.0125 20.4816 17.6077 21.1861 15.6851 21.6811C15.2357 21.7964 14.7644 21.7964 14.3149 21.6811C12.3931 21.1861 10.9868 20.4816 10.1391 19.5872C8.75626 18.1296 8.36251 15.9286 8.19142 14.1136ZM13.8677 22.2891C13.9577 22.3125 14.0473 22.3385 14.1394 22.3622C14.7039 22.5075 15.2959 22.5075 15.8604 22.3622C15.9525 22.3388 16.0423 22.3137 16.1323 22.2891C16.3027 23.306 16.9057 24.0091 17.9939 24.4584C16.6252 25.7107 15.7484 25.8987 15.0075 25.8987C14.2667 25.8987 13.3875 25.7112 12.0162 24.4542C13.0983 24.0045 13.6981 23.3025 13.8677 22.2891ZM19.005 24.2981C19.0309 24.2257 19.0737 24.1605 19.1299 24.1079C19.1861 24.0553 19.254 24.0169 19.328 23.9958C19.4012 23.974 19.4786 23.9701 19.5537 23.9843C19.6288 23.9986 19.6993 24.0307 19.7595 24.0778C20.5045 24.6544 21.676 26.577 21.8487 27.5058C21.8937 27.7486 21.818 27.8297 21.7894 27.8604C21.4313 28.2455 19.9819 28.0805 18.9239 27.96C18.5417 27.9164 18.1807 27.8756 17.8556 27.8538C17.8499 27.8537 17.8443 27.8522 17.8393 27.8494C17.8342 27.8466 17.83 27.8427 17.8268 27.8379C17.8237 27.8335 17.8217 27.8284 17.821 27.8231C17.8202 27.8177 17.8208 27.8123 17.8226 27.8072C18.1247 26.8594 18.5749 25.4824 19.005 24.2981ZM6.30916 16.1998C6.02298 15.5937 5.99181 14.7841 6.48681 14.4094C6.78871 14.2251 7.14844 14.1599 7.4958 14.2266C7.51923 14.4609 7.54501 14.7009 7.57642 14.9452C7.38869 14.8783 7.18939 14.8501 6.99048 14.8622C6.9437 14.8657 6.89809 14.8785 6.85635 14.9C6.8146 14.9214 6.77757 14.9509 6.74742 14.9869C6.71728 15.0228 6.69463 15.0644 6.68082 15.1093C6.66701 15.1541 6.66231 15.2013 6.667 15.2479C6.6717 15.2946 6.68569 15.3399 6.70815 15.3811C6.73061 15.4223 6.76108 15.4585 6.79778 15.4878C6.83448 15.517 6.87666 15.5386 6.92183 15.5513C6.967 15.5639 7.01425 15.5674 7.0608 15.5616C7.18834 15.5615 7.31424 15.5905 7.42889 15.6463C7.54354 15.7022 7.64394 15.7835 7.72244 15.8841C7.80847 16.3496 7.92203 16.8096 8.06252 17.2617C7.85499 17.2896 7.6438 17.2671 7.44681 17.1961C6.95547 17.0194 6.54909 16.6635 6.30916 16.1998ZM13.3327 29.0773C13.1311 28.3995 12.6061 26.7923 12.1716 25.5049C13.1508 26.2624 14.0421 26.6016 15.0075 26.6016C15.9729 26.6016 16.864 26.2631 17.8435 25.5056C17.4087 26.7931 16.8842 28.3997 16.6826 29.0773H13.3327ZM23.692 16.1998C23.4522 16.6635 23.0459 17.0194 22.5546 17.1961C22.3577 17.2672 22.1465 17.2897 21.9389 17.262C22.0793 16.8097 22.1928 16.3495 22.2788 15.8838C22.3575 15.784 22.4578 15.7032 22.5722 15.6475C22.6866 15.5919 22.812 15.5628 22.9392 15.5625C22.9858 15.5684 23.033 15.5649 23.0782 15.5522C23.1234 15.5395 23.1656 15.5179 23.2022 15.4887C23.2389 15.4595 23.2694 15.4232 23.2919 15.382C23.3143 15.3408 23.3283 15.2956 23.333 15.2489C23.3377 15.2022 23.333 15.155 23.3192 15.1102C23.3054 15.0654 23.2828 15.0238 23.2526 14.9878C23.2225 14.9519 23.1854 14.9223 23.1437 14.9009C23.1019 14.8795 23.0563 14.8666 23.0095 14.8631C22.8107 14.8513 22.6114 14.8795 22.4236 14.9461C22.455 14.7019 22.4817 14.4616 22.5042 14.2275C22.8517 14.1607 23.2116 14.226 23.5135 14.4106C24.0082 14.7841 23.9766 15.5937 23.6909 16.1998H23.692Z" fill="#C52B09"/>
</svg>
