<svg width="26" height="26" viewBox="0 0 26 26" fill="none" xmlns="http://www.w3.org/2000/svg">
<g clip-path="url(#clip0_995_2311)">
<path d="M24.4766 14.015H23.9688V10.4603C23.9688 9.05895 22.9847 7.88388 21.6715 7.58772L19.3602 3.58443C19.0215 2.99776 18.4746 2.57805 17.8202 2.4027C17.3581 2.27895 16.8817 2.28804 16.4349 2.42291L14.7542 0.742204C13.7653 -0.246659 12.1563 -0.246761 11.1674 0.742204L4.39466 7.515H2.94531C1.32128 7.515 0 8.83628 0 10.4603V23.0541C0 24.6781 1.32128 25.9994 2.94531 25.9994H9.69922C9.97963 25.9994 10.207 25.772 10.207 25.4916C10.207 25.2112 9.97963 24.9838 9.69922 24.9838H2.94531C1.88129 24.9838 1.01562 24.1181 1.01562 23.0541V10.4603C1.01562 9.39629 1.88129 8.53063 2.94531 8.53063H21.0234C22.0875 8.53063 22.9531 9.39629 22.9531 10.4603V14.015H19.1953C17.6833 14.015 16.4531 15.2452 16.4531 16.7572C16.4531 18.2692 17.6833 19.4994 19.1953 19.4994H22.9531V23.0541C22.9531 24.1181 22.0875 24.9838 21.0234 24.9838H14.2695C13.9891 24.9838 13.7617 25.2112 13.7617 25.4916C13.7617 25.772 13.9891 25.9994 14.2695 25.9994H21.0234C22.6475 25.9994 23.9688 24.6781 23.9688 23.0541V19.4994H24.4766C25.3166 19.4994 26 18.816 26 17.9759V15.5384C26 14.6985 25.3166 14.015 24.4766 14.015ZM17.5573 3.38374C17.9496 3.48886 18.2776 3.74048 18.4807 4.09224L20.4568 7.515H9.51097L16.4034 3.53563C16.7551 3.33261 17.1648 3.27858 17.5573 3.38374ZM11.8856 1.4604C12.1727 1.17318 12.5546 1.015 12.9608 1.015C13.367 1.015 13.7489 1.17318 14.0361 1.4604L15.4748 2.89909L7.47977 7.515H5.83101L11.8856 1.4604ZM24.9844 17.9759C24.9844 18.2559 24.7566 18.4838 24.4766 18.4838H19.1953C18.2433 18.4838 17.4688 17.7092 17.4688 16.7572C17.4688 15.8051 18.2433 15.0306 19.1953 15.0306H24.4766C24.7566 15.0306 24.9844 15.2584 24.9844 15.5384V17.9759Z" fill="#1E8308"/>
<path d="M19.1105 16.2494C18.9769 16.2494 18.8459 16.3037 18.7515 16.3982C18.657 16.4927 18.6027 16.6231 18.6027 16.7572C18.6027 16.8908 18.6569 17.0218 18.7515 17.1162C18.8459 17.2106 18.9769 17.265 19.1105 17.265C19.2445 17.265 19.375 17.2107 19.4694 17.1162C19.5644 17.0218 19.6183 16.8908 19.6183 16.7572C19.6183 16.6236 19.5644 16.4926 19.4694 16.3982C19.375 16.3037 19.2445 16.2494 19.1105 16.2494Z" fill="#1E8308"/>
<path d="M11.9844 24.9838C11.8508 24.9838 11.7198 25.038 11.6254 25.1326C11.5309 25.2271 11.4766 25.358 11.4766 25.4916C11.4766 25.6251 11.5308 25.7561 11.6254 25.8505C11.7198 25.945 11.8508 25.9994 11.9844 25.9994C12.1179 25.9994 12.2489 25.9451 12.3433 25.8505C12.4378 25.7561 12.4922 25.6251 12.4922 25.4916C12.4922 25.358 12.4379 25.227 12.3433 25.1326C12.2489 25.0381 12.1179 24.9838 11.9844 24.9838Z" fill="#1E8308"/>
</g>
<defs>
<clipPath id="clip0_995_2311">
<rect width="26" height="26" fill="white"/>
</clipPath>
</defs>
</svg>
