<svg width="23" height="23" viewBox="0 0 23 23" fill="none" xmlns="http://www.w3.org/2000/svg">
<path fill-rule="evenodd" clip-rule="evenodd" d="M9.41665 1.60417C7.11546 1.60417 5.24998 3.46965 5.24998 5.77083C5.24998 8.07202 7.11546 9.9375 9.41665 9.9375C11.7178 9.9375 13.5833 8.07202 13.5833 5.77083C13.5833 3.46965 11.7178 1.60417 9.41665 1.60417ZM4.20831 5.77083C4.20831 2.89435 6.54017 0.5625 9.41665 0.5625C12.2931 0.5625 14.625 2.89435 14.625 5.77083C14.625 8.64731 12.2931 10.9792 9.41665 10.9792C6.54017 10.9792 4.20831 8.64731 4.20831 5.77083Z" fill="white"/>
<path fill-rule="evenodd" clip-rule="evenodd" d="M9.41667 10.9792C5.10194 10.9792 1.60417 14.477 1.60417 18.7917H0.5625C0.5625 13.9017 4.52665 9.9375 9.41667 9.9375V10.9792Z" fill="white"/>
<path fill-rule="evenodd" clip-rule="evenodd" d="M16.7084 12.0209C14.1195 12.0209 12.0209 14.1195 12.0209 16.7084C12.0209 19.2972 14.1195 21.3959 16.7084 21.3959C19.2972 21.3959 21.3959 19.2972 21.3959 16.7084C21.3959 14.1195 19.2972 12.0209 16.7084 12.0209ZM10.9792 16.7084C10.9792 13.5442 13.5442 10.9792 16.7084 10.9792C19.8725 10.9792 22.4375 13.5442 22.4375 16.7084C22.4375 19.8725 19.8725 22.4375 16.7084 22.4375C13.5442 22.4375 10.9792 19.8725 10.9792 16.7084Z" fill="white"/>
<path fill-rule="evenodd" clip-rule="evenodd" d="M19.3125 17.2292H14.1042V16.1875H19.3125V17.2292Z" fill="white"/>
</svg>
