<svg width="26" height="26" viewBox="0 0 26 26" fill="none" xmlns="http://www.w3.org/2000/svg">
<g clip-path="url(#clip0_995_2325)">
<path d="M23.5255 14.75V6.77454C23.5255 5.15974 22.2118 3.84588 20.5969 3.84588H20.2413V3.24128C20.2413 1.62618 18.9276 0.312317 17.3127 0.312317H3.24098C1.62604 0.312317 0.312378 1.62618 0.312378 3.24128V18.3719C0.312378 19.987 1.62604 21.3008 3.24098 21.3008H13.5117C14.2984 23.839 16.6677 25.6877 19.461 25.6877C22.8942 25.6877 25.6875 22.8944 25.6875 19.4611C25.6876 17.5802 24.8479 15.8929 23.5255 14.75ZM1.13092 10.2311C1.66534 10.7874 2.41426 11.1341 3.24098 11.1341H6.39374C7.31811 11.1341 8.07003 11.886 8.07003 12.8103C8.07003 13.7346 7.31811 14.4867 6.39374 14.4867L3.24098 14.487C2.12903 14.487 1.20394 13.618 1.13508 12.5082C1.13437 12.4993 1.13189 12.4911 1.13092 12.4824V10.2311ZM3.24098 20.4821C2.07733 20.4821 1.13092 19.5356 1.13092 18.3719V14.4008C1.66585 14.9577 2.41528 15.3056 3.24098 15.3056L6.39374 15.3052C7.76935 15.3052 8.88857 14.186 8.88857 12.8102C8.88857 11.4346 7.76935 10.3155 6.39374 10.3155H3.24098C2.12324 10.3155 1.1979 9.44192 1.13442 8.32631C1.13412 8.31879 1.13163 8.31174 1.13097 8.30427V3.24128C1.13097 2.07757 2.07738 1.13096 3.24103 1.13096H17.3127C18.4763 1.13096 19.4228 2.07757 19.4228 3.24128V3.84588H2.98367C2.75744 3.84588 2.57423 4.02915 2.57423 4.25523C2.57423 4.48136 2.75739 4.66457 2.98367 4.66457H20.5969C21.7603 4.66457 22.7069 5.61109 22.7069 6.77459V14.15C21.7614 13.5698 20.6497 13.2347 19.461 13.2347C16.0278 13.2347 13.2344 16.0279 13.2344 19.4611C13.2344 19.809 13.2644 20.1497 13.3197 20.4821H3.24098ZM19.461 24.8691C16.4789 24.8691 14.0531 22.4431 14.0531 19.461C14.0531 16.4791 16.4789 14.053 19.461 14.053C22.4429 14.053 24.8689 16.4791 24.8689 19.461C24.8689 22.4431 22.4429 24.8691 19.461 24.8691ZM19.8701 15.303V19.4611C19.8701 19.6872 19.6869 19.8705 19.461 19.8705H16.8173C16.591 19.8705 16.408 19.6872 16.408 19.4611C16.408 19.2351 16.591 19.0518 16.8173 19.0518H19.0517V15.303C19.0517 15.0771 19.2348 14.8939 19.461 14.8939C19.6869 14.8939 19.8701 15.0771 19.8701 15.303Z" fill="#EE3E08"/>
</g>
<defs>
<clipPath id="clip0_995_2325">
<rect width="26" height="26" fill="white"/>
</clipPath>
</defs>
</svg>
