<svg width="25" height="21" viewBox="0 0 25 21" fill="none" xmlns="http://www.w3.org/2000/svg">
<path d="M12.462 10.3076C14.0989 9.37066 15.2174 7.62609 15.2174 5.60868C15.2174 2.61195 12.7793 0.173889 9.7826 0.173889C6.78586 0.173889 4.34781 2.61195 4.34781 5.60868C4.34781 7.62609 5.46628 9.37066 7.10324 10.3076C3.00871 11.3826 0 14.8446 0 18.9478V20.2826C0 20.5826 0.243495 20.8261 0.543495 20.8261C0.843495 20.8261 1.08699 20.5826 1.08699 20.2826V18.9478C1.08694 14.5902 4.98806 11.0435 9.7826 11.0435C14.5771 11.0435 18.4783 14.5902 18.4783 18.9478V20.2826C18.4783 20.5826 18.7218 20.8261 19.0218 20.8261C19.3218 20.8261 19.5653 20.5826 19.5653 20.2826V18.9478C19.5652 14.8446 16.5565 11.3815 12.462 10.3076ZM5.4348 5.60868C5.4348 3.21088 7.38479 1.26088 9.7826 1.26088C12.1804 1.26088 14.1304 3.21088 14.1304 5.60868C14.1304 8.00649 12.1804 9.95649 9.7826 9.95649C7.38479 9.95649 5.4348 8.00654 5.4348 5.60868Z" fill="white"/>
<path d="M19.7804 10.3217C20.9586 9.54238 21.7391 8.20976 21.7391 6.69565C21.7391 4.29784 19.7891 2.34784 17.3913 2.34784C17.0913 2.34784 16.8478 2.59133 16.8478 2.89133C16.8478 3.19133 17.0913 3.43483 17.3913 3.43483C19.1891 3.43483 20.6521 4.89789 20.6521 6.6957C20.6521 8.4935 19.1891 9.95656 17.3913 9.95656C17.0913 9.95656 16.8478 10.2001 16.8478 10.5001C16.8478 10.8001 17.0912 11.0435 17.3912 11.0435C20.988 11.0435 23.913 13.7467 23.913 17.0706V18.1086C23.913 18.4086 24.1565 18.6521 24.4565 18.6521C24.7565 18.6521 24.9999 18.4086 24.9999 18.1086V17.0706C24.9999 13.9293 22.8086 11.2609 19.7804 10.3217Z" fill="white"/>
</svg>
