<svg width="26" height="26" viewBox="0 0 26 26" fill="none" xmlns="http://www.w3.org/2000/svg">
<g clip-path="url(#clip0_995_2298)">
<path d="M25.323 18.6095C24.838 17.8967 24.0153 17.7227 23.1215 18.1433L22.6478 18.3518C23.3947 16.7598 23.4874 14.9852 23.1156 13.3089C22.6886 11.3836 21.6571 9.51854 20.05 7.76542C19.9079 7.61038 19.6671 7.59992 19.512 7.74206C19.357 7.88414 19.3465 8.125 19.4886 8.28009C21.0042 9.93332 21.9744 11.6808 22.3721 13.4738C22.791 15.3625 22.5473 17.3103 21.4783 18.8668L16.7383 20.9538L16.7422 20.4185C16.7423 20.405 16.7417 20.3915 16.7403 20.378C16.6309 19.2777 15.7898 18.4011 14.695 18.2462C14.6918 18.2457 14.6885 18.2453 14.6852 18.2449L10.4724 17.7599C8.8524 17.5293 8.43518 16.5585 6.24122 16.0049C6.08964 14.7186 6.2917 13.3491 6.84552 11.9761C7.6796 9.90844 9.31136 7.89953 11.5735 6.15098C12.4166 6.74878 16.1781 6.82317 17.0199 6.05201C17.4511 6.3795 17.8627 6.71699 18.2461 7.05859C18.3186 7.12329 18.4091 7.15508 18.4993 7.15508C18.6041 7.15508 18.7085 7.11207 18.7837 7.02762C18.9236 6.8706 18.9097 6.6299 18.7527 6.49C18.3324 6.11559 17.8803 5.74615 17.4062 5.38911C17.5173 4.91796 17.3618 4.36653 16.9515 4.03828C18.1438 2.22986 18.4906 1.0462 18.0116 0.426055C17.6825 5.08279e-05 17.2733 0.199977 17.0985 0.285391C16.8022 0.430016 16.6407 0.437633 16.3681 0.259289C15.848 -0.0809961 15.3014 -0.0919648 14.7646 0.259289C14.4886 0.439918 14.2712 0.439918 13.9952 0.259289C13.4751 -0.0809961 12.9287 -0.0919648 12.3918 0.259289C12.1161 0.439766 11.9539 0.428594 11.6623 0.283664C11.4877 0.196879 11.0789 -0.00634763 10.7478 0.419707C10.2796 1.02238 10.5928 2.16871 11.7047 3.91564C11.6366 3.95246 11.5717 3.99567 11.5111 4.04503C11.0689 3.57805 10.3444 3.091 9.29668 3.208C8.42766 3.30525 7.78685 3.01808 7.40224 2.76011C7.22755 2.64311 6.99101 2.68973 6.87391 2.86432C6.75681 3.039 6.80347 3.27554 6.97811 3.39264C7.4684 3.72135 8.28324 4.08728 9.38118 3.96485C10.1906 3.87405 10.7399 4.28771 11.0818 4.70869C11.0771 4.72494 11.0728 4.74129 11.0688 4.75764C10.7772 4.76221 10.3413 4.78943 9.86132 4.88927C8.70696 5.12941 7.85008 5.678 7.38324 6.47588C7.27706 6.65737 7.3381 6.89066 7.51959 6.99689C7.70113 7.10308 7.93437 7.04199 8.04056 6.8605C8.73494 5.67379 10.4299 5.52866 11.1031 5.51957C11.106 5.52795 11.1094 5.53622 11.1124 5.54455C8.71006 7.39771 7.03753 9.46436 6.13931 11.6911C5.57157 13.0986 5.34478 14.5087 5.4599 15.8488C5.09474 15.7947 4.72535 15.7657 4.35419 15.7632V15.5329C4.35419 14.9236 3.85847 14.4279 3.24914 14.4279H1.50105C0.891723 14.4279 0.395996 14.9236 0.395996 15.5329V24.4016C0.395996 25.0109 0.891723 25.5066 1.50105 25.5066H3.24909C3.85841 25.5066 4.35414 25.0109 4.35414 24.4016V24.2931L8.16736 25.7124C8.67979 25.9031 9.21685 25.9998 9.76362 25.9998H15.4453C16.314 25.9998 17.161 25.754 17.8947 25.2891C25.4742 20.4842 25.0139 20.7831 25.0577 20.7443C25.6683 20.2024 25.7823 19.2846 25.323 18.6095ZM16.3053 5.60077C14.9127 5.95237 13.5588 5.95237 12.166 5.60077C11.5683 5.44969 11.7415 4.38379 12.3838 4.54487C13.6298 4.85768 14.8413 4.85768 16.0875 4.54487C16.7186 4.38643 16.9125 5.4473 16.3053 5.60077ZM11.3145 0.96134C11.3175 0.962813 11.3205 0.964336 11.3234 0.965758C11.8387 1.2219 12.2903 1.23581 12.8088 0.896645C13.4575 0.471961 13.528 1.15289 14.3798 1.15289C14.7899 1.15289 15.0163 1.00481 15.1815 0.896645C15.4576 0.715965 15.6751 0.716066 15.9511 0.896645C16.4718 1.23739 16.9125 1.22058 17.4429 0.964793C17.5212 1.24724 17.3439 2.08924 16.2147 3.77041C15.654 3.76086 14.8403 4.31158 12.5367 3.79894C11.41 2.09605 11.2358 1.24587 11.3145 0.96134ZM24.5728 20.1561L17.487 24.6461C16.8755 25.0336 16.1695 25.2385 15.4454 25.2385H9.76367C9.3079 25.2385 8.86022 25.1578 8.43305 24.9988L4.35414 23.4806V19.3798C4.35414 19.1695 4.18367 18.999 3.97338 18.999C3.7631 18.999 3.59263 19.1695 3.59263 19.3798V24.4018C3.59263 24.5912 3.4385 24.7452 3.24914 24.7452H1.50105C1.31163 24.7452 1.15756 24.5911 1.15756 24.4018V15.5331C1.15756 15.3437 1.31163 15.1897 1.50105 15.1897H3.24909C3.4385 15.1897 3.59258 15.3438 3.59258 15.5331V17.5996C3.59258 17.8099 3.76305 17.9804 3.97333 17.9804C4.18362 17.9804 4.35409 17.8099 4.35409 17.5996V16.525C7.5041 16.5491 8.21235 18.2094 10.3705 18.5146C10.3737 18.5151 10.377 18.5156 10.3802 18.5159L14.5929 19.0009C15.3305 19.1074 15.8982 19.6948 15.9804 20.4343L15.9751 21.1587H12.0464C11.8361 21.1587 11.6656 21.3291 11.6656 21.5395C11.6656 21.7498 11.8361 21.9203 12.0464 21.9203H16.3531C16.4012 21.9203 16.4567 21.9096 16.5051 21.8885C16.5129 21.8851 23.4247 18.8419 23.4328 18.8384C23.931 18.617 24.3852 18.5853 24.6933 19.038C24.9327 19.3898 24.8797 19.8653 24.5728 20.1561Z" fill="#3E2AD8"/>
<path d="M14.3359 17.2768C14.5462 17.2768 14.7167 17.1063 14.7167 16.896V16.2648C15.7857 16.0913 16.4095 15.226 16.5452 14.4188C16.7147 13.4105 16.1865 12.5335 15.1996 12.1847C15.0252 12.1231 14.8648 12.0641 14.7167 12.0072V9.57922C15.1672 9.65392 15.4376 9.88706 15.4573 9.90448C15.612 10.0451 15.8514 10.0347 15.9933 9.88086C16.1359 9.72628 16.1262 9.48538 15.9716 9.34279C15.9447 9.318 15.4784 8.89809 14.7167 8.81029V8.26876C14.7167 8.05843 14.5462 7.88795 14.3359 7.88795C14.1256 7.88795 13.9551 8.05843 13.9551 8.26876V8.84107C13.8633 8.85864 13.7693 8.88098 13.6726 8.91008C13.0267 9.10462 12.5439 9.65849 12.4125 10.3555C12.2933 10.9879 12.4938 11.5962 12.9358 11.9428C13.1895 12.1418 13.509 12.3241 13.9551 12.5188V15.5302C13.5147 15.5116 13.2437 15.4289 12.7708 15.1196C12.5948 15.0045 12.3588 15.0537 12.2437 15.2298C12.1286 15.4057 12.1779 15.6417 12.3539 15.7569C12.9755 16.1635 13.391 16.2696 13.9551 16.2915V16.896C13.9551 17.1063 14.1256 17.2768 14.3359 17.2768ZM13.4058 11.3436C13.1884 11.1731 13.0945 10.8485 13.1609 10.4965C13.2225 10.1701 13.4469 9.77351 13.8923 9.63935C13.9135 9.63295 13.9343 9.62747 13.9551 9.62188V11.6788C13.7271 11.5649 13.5483 11.4554 13.4058 11.3436ZM14.9458 12.9028C15.8934 13.2377 15.8347 14.0513 15.7941 14.2926C15.7101 14.7924 15.3433 15.3259 14.7167 15.4865V12.8202C14.7908 12.8474 14.8665 12.8747 14.9458 12.9028Z" fill="#3E2AD8"/>
</g>
<defs>
<clipPath id="clip0_995_2298">
<rect width="26" height="26" fill="white"/>
</clipPath>
</defs>
</svg>
