<svg width="26" height="26" viewBox="0 0 26 26" fill="none" xmlns="http://www.w3.org/2000/svg">
<g clip-path="url(#clip0_1023_3357)">
<path fill-rule="evenodd" clip-rule="evenodd" d="M17.6566 19.1645C18.3058 18.5115 19.3151 17.4081 19.9383 16.7301C20.5586 16.0552 27.2526 20.5889 25.7921 21.8963L22.3649 24.9645C15.818 30.8253 -4.8255 10.1817 1.03531 3.63487L4.10346 0.207642C5.41088 -1.25278 9.94458 5.44121 9.2697 6.0615C8.59171 6.68464 7.48829 7.69402 6.83524 8.34321C4.50728 10.6575 15.3423 21.4925 17.6566 19.1645ZM22.5905 10.6779L16.7003 10.526L25.746 1.48027C26.0846 1.14161 26.0846 0.592462 25.746 0.253751C25.4073 -0.0849092 24.8582 -0.0849092 24.5195 0.253751L15.4737 9.29952L15.3219 3.40925C15.3106 2.93246 14.915 2.55506 14.4383 2.56628C13.9615 2.5775 13.5841 2.97314 13.5953 3.44987L13.7993 11.3575C13.8098 11.8159 14.1791 12.1896 14.6422 12.2005L22.5499 12.4045C23.0267 12.4157 23.4223 12.0383 23.4335 11.5615C23.4447 11.0848 23.0673 10.6891 22.5905 10.6779Z" fill="#605DFF"/>
</g>
<defs>
<clipPath id="clip0_1023_3357">
<rect width="26" height="26" fill="white"/>
</clipPath>
</defs>
</svg>
