<svg width="18" height="18" viewBox="0 0 18 18" fill="none" xmlns="http://www.w3.org/2000/svg">
<path d="M16.9519 5.70166C16.913 4.8501 16.7777 4.26856 16.58 3.75977C16.3792 3.22595 16.0642 2.74243 15.6572 2.34277C15.2577 1.93579 14.774 1.62073 14.2402 1.4198C13.7313 1.22217 13.1499 1.08704 12.2983 1.04834C11.4452 1.00928 11.1726 1 9 1C6.82739 1 6.55481 1.00928 5.70166 1.0481C4.8501 1.08704 4.26868 1.22229 3.75977 1.42004C3.22595 1.62085 2.74243 1.93579 2.34277 2.34277C1.93579 2.74231 1.62073 3.22583 1.4198 3.75964C1.22217 4.26856 1.08704 4.8501 1.04834 5.70154C1.00928 6.55481 1 6.82727 1 8.99988C1 11.1726 1.00928 11.4452 1.04834 12.2983C1.08716 13.1498 1.22241 13.7313 1.42017 14.2402C1.62097 14.7739 1.93591 15.2576 2.3429 15.6571C2.74243 16.0641 3.22607 16.379 3.75989 16.5798C4.26868 16.7777 4.85022 16.9128 5.70178 16.9518C6.55505 16.9907 6.82751 16.9999 9.00012 16.9999C11.1727 16.9999 11.4453 16.9907 12.2985 16.9518C13.15 16.9128 13.7314 16.7777 14.2404 16.5798C15.3149 16.1643 16.1644 15.3148 16.58 14.2402C16.7778 13.7313 16.913 13.1498 16.9519 12.2983C16.9907 11.4451 17 11.1726 17 9C17 6.82727 16.9907 6.55481 16.9519 5.70166ZM15.5118 12.2328C15.4763 13.0128 15.3459 13.4364 15.2365 13.7183C14.9673 14.416 14.4159 14.9674 13.7181 15.2366C13.4363 15.3461 13.0127 15.4764 12.2327 15.512C11.3893 15.5505 11.1362 15.5586 9 15.5586C6.86365 15.5586 6.61072 15.5505 5.76721 15.512C4.9873 15.4764 4.56372 15.3461 4.28174 15.2366C3.93433 15.1083 3.62 14.9038 3.36194 14.6381C3.09619 14.38 2.89172 14.0658 2.76343 13.7183C2.65393 13.4364 2.52356 13.0128 2.48804 12.2328C2.44958 11.3893 2.44141 11.1362 2.44141 9.00012C2.44141 6.86389 2.44958 6.61096 2.48804 5.76733C2.52368 4.98731 2.65393 4.56372 2.76343 4.28186C2.89172 3.93433 3.09631 3.62 3.36194 3.36194C3.62 3.09619 3.93433 2.89172 4.28186 2.76355C4.56372 2.65393 4.9873 2.52368 5.76733 2.48804C6.61084 2.44959 6.86389 2.44141 9 2.44141H8.99988C11.136 2.44141 11.389 2.44959 12.2327 2.48816C13.0127 2.52368 13.4362 2.65405 13.7181 2.76355C14.0656 2.89185 14.3799 3.09631 14.6379 3.36194C14.9037 3.62 15.1082 3.93433 15.2363 4.28186C15.3459 4.56372 15.4763 4.98731 15.5118 5.76733C15.5503 6.61084 15.5585 6.86389 15.5585 9C15.5585 11.1362 15.5504 11.3892 15.5118 12.2328Z" fill="url(#paint0_linear_1038_293)"/>
<path d="M8.99988 4.89185C6.73108 4.89185 4.89185 6.7312 4.89185 9C4.89185 11.2688 6.73108 13.108 8.99988 13.108C11.2688 13.108 13.108 11.2688 13.108 9C13.108 6.7312 11.2688 4.89185 8.99988 4.89185ZM8.99988 11.6666C7.52722 11.6665 6.33325 10.4727 6.33337 8.99988C6.33337 7.52722 7.52722 6.33325 9 6.33325C10.4728 6.33337 11.6666 7.52722 11.6666 8.99988C11.6666 10.4727 10.4727 11.6666 8.99988 11.6666Z" fill="url(#paint1_linear_1038_293)"/>
<path d="M14.2303 4.72961C14.2303 5.25977 13.8005 5.68958 13.2704 5.68958C12.7401 5.68958 12.3103 5.25977 12.3103 4.72961C12.3103 4.19934 12.7401 3.76953 13.2704 3.76953C13.8005 3.76953 14.2303 4.19934 14.2303 4.72961Z" fill="url(#paint2_linear_1038_293)"/>
<defs>
<linearGradient id="paint0_linear_1038_293" x1="2.34269" y1="15.6572" x2="15.6573" y2="2.34256" gradientUnits="userSpaceOnUse">
<stop stop-color="#FFD600"/>
<stop offset="0.5" stop-color="#FF0100"/>
<stop offset="1" stop-color="#D800B9"/>
</linearGradient>
<linearGradient id="paint1_linear_1038_293" x1="6.09509" y1="11.9048" x2="11.9048" y2="6.09509" gradientUnits="userSpaceOnUse">
<stop stop-color="#FF6400"/>
<stop offset="0.5" stop-color="#FF0100"/>
<stop offset="1" stop-color="#FD0056"/>
</linearGradient>
<linearGradient id="paint2_linear_1038_293" x1="12.5915" y1="5.40836" x2="13.9491" y2="4.05075" gradientUnits="userSpaceOnUse">
<stop stop-color="#F30072"/>
<stop offset="1" stop-color="#E50097"/>
</linearGradient>
</defs>
</svg>
