<svg width="25" height="25" viewBox="0 0 25 25" fill="none" xmlns="http://www.w3.org/2000/svg">
<path d="M12.7604 12.7604C11.5758 12.7604 10.4178 12.4092 9.43276 11.751C8.44778 11.0928 7.68008 10.1574 7.22675 9.06295C6.77341 7.9685 6.65479 6.76419 6.88591 5.60232C7.11701 4.44046 7.68747 3.37322 8.52513 2.53556C9.36278 1.69791 10.43 1.12745 11.5919 0.896341C12.7537 0.665231 13.9581 0.783845 15.0525 1.23719C16.147 1.69052 17.0824 2.45822 17.7406 3.4432C18.3987 4.42819 18.75 5.58621 18.75 6.77083C18.7473 8.35853 18.1153 9.8804 16.9926 11.003C15.87 12.1257 14.3481 12.7577 12.7604 12.7604ZM12.7604 2.34375C11.8848 2.34375 11.0288 2.6034 10.3008 3.08985C9.57281 3.5763 9.00539 4.26772 8.6703 5.07667C8.33523 5.8856 8.24756 6.77575 8.41838 7.63452C8.5892 8.49329 9.01084 9.28211 9.62998 9.90126C10.2491 10.5204 11.0379 10.9421 11.8968 11.1128C12.7555 11.2836 13.6456 11.196 14.4546 10.8609C15.2635 10.5258 15.955 9.95843 16.4413 9.2304C16.9278 8.50237 17.1875 7.64643 17.1875 6.77083C17.1848 5.59754 16.7174 4.47309 15.8878 3.64346C15.0581 2.81381 13.9337 2.3465 12.7604 2.34375Z" fill="white"/>
<path d="M3.38541 21.0938C3.17904 21.0911 2.9819 21.0079 2.83596 20.862C2.69003 20.7161 2.60685 20.5189 2.60416 20.3125C2.60966 17.8969 3.57171 15.5818 5.27983 13.8737C6.98796 12.1655 9.30309 11.2035 11.7187 11.1979H13.8021C14.0093 11.1979 14.208 11.2802 14.3545 11.4268C14.501 11.5732 14.5833 11.772 14.5833 11.9792C14.5833 12.1864 14.501 12.3851 14.3545 12.5316C14.208 12.6781 14.0093 12.7604 13.8021 12.7604H11.7187C9.71665 12.7631 7.79734 13.5597 6.38166 14.9754C4.96596 16.3912 4.16942 18.3104 4.16666 20.3125C4.16396 20.5189 4.08078 20.7161 3.93485 20.862C3.78892 21.0079 3.59177 21.0911 3.38541 21.0938Z" fill="white"/>
<path d="M17.4479 24.2188C17.2416 24.2161 17.0444 24.1329 16.8984 23.987C16.7525 23.8411 16.6694 23.6439 16.6667 23.4375V15.1042C16.6667 14.897 16.7489 14.6982 16.8955 14.5518C17.042 14.4052 17.2407 14.3229 17.4479 14.3229C17.6551 14.3229 17.8538 14.4052 18.0003 14.5518C18.1469 14.6982 18.2292 14.897 18.2292 15.1042V23.4375C18.2264 23.6439 18.1433 23.8411 17.9974 23.987C17.8514 24.1329 17.6543 24.2161 17.4479 24.2188Z" fill="white"/>
<path d="M21.6146 20.0521H13.2812C13.0741 20.0521 12.8753 19.9698 12.7289 19.8232C12.5823 19.6768 12.5 19.478 12.5 19.2708C12.5 19.0636 12.5823 18.8649 12.7289 18.7184C12.8753 18.5719 13.0741 18.4896 13.2812 18.4896H21.6146C21.8218 18.4896 22.0205 18.5719 22.167 18.7184C22.3135 18.8649 22.3958 19.0636 22.3958 19.2708C22.3958 19.478 22.3135 19.6768 22.167 19.8232C22.0205 19.9698 21.8218 20.0521 21.6146 20.0521Z" fill="white"/>
</svg>
