<svg width="20" height="22" viewBox="0 0 20 22" fill="none" xmlns="http://www.w3.org/2000/svg">
<path fill-rule="evenodd" clip-rule="evenodd" d="M13.5358 9.66386L9.53035 16.6017C9.37042 16.8793 9.27652 17.1898 9.25795 17.5097C9.23112 17.9472 9.17333 18.9057 9.11968 19.8127C9.07222 20.5927 9.4705 21.3325 10.1474 21.7236C10.8242 22.1146 11.6641 22.0888 12.3162 21.6586C13.0746 21.1571 13.8763 20.6288 14.2415 20.3874C14.5088 20.2109 14.7316 19.9747 14.8916 19.6971L18.897 12.7593C19.4666 11.7718 19.1292 10.5099 18.1417 9.94039L16.3547 8.90858C15.3672 8.33903 14.1053 8.67642 13.5358 9.66386ZM17.0088 6.17121V3.09541C17.0088 1.38571 15.6231 0 13.9134 0H3.59541C2.77409 0 1.98682 0.326047 1.40695 0.906952C0.826047 1.48682 0.5 2.27409 0.5 3.09541V17.5406C0.5 19.2503 1.88571 20.636 3.59541 20.636H6.62891C7.19846 20.636 7.66071 20.1738 7.66071 19.6042C7.66071 19.0347 7.19846 18.5724 6.62891 18.5724H3.59541C3.02585 18.5724 2.5636 18.1102 2.5636 17.5406V3.09541C2.5636 2.82198 2.67194 2.55887 2.86592 2.36592C3.05887 2.17194 3.32198 2.0636 3.59541 2.0636H13.9134C14.483 2.0636 14.9452 2.52585 14.9452 3.09541V6.17121C14.9452 6.74077 15.4075 7.20302 15.977 7.20302C16.5466 7.20302 17.0088 6.74077 17.0088 6.17121ZM15.3229 10.6957L17.1099 11.7275L13.1045 18.6653L11.1792 19.9365L11.3174 17.6335L15.3229 10.6957ZM5.65901 15.477H7.90317C8.47272 15.477 8.93497 15.0148 8.93497 14.4452C8.93497 13.8757 8.47272 13.4134 7.90317 13.4134H5.65901C5.08946 13.4134 4.62721 13.8757 4.62721 14.4452C4.62721 15.0148 5.08946 15.477 5.65901 15.477ZM5.65901 11.3498H10.1474C10.7169 11.3498 11.1792 10.8876 11.1792 10.318C11.1792 9.74847 10.7169 9.28622 10.1474 9.28622H5.65901C5.08946 9.28622 4.62721 9.74847 4.62721 10.318C4.62721 10.8876 5.08946 11.3498 5.65901 11.3498ZM5.65901 7.22262H11.8498C12.4194 7.22262 12.8816 6.76037 12.8816 6.19081C12.8816 5.62126 12.4194 5.15901 11.8498 5.15901H5.65901C5.08946 5.15901 4.62721 5.62126 4.62721 6.19081C4.62721 6.76037 5.08946 7.22262 5.65901 7.22262Z" fill="white"/>
</svg>
