<svg width="23" height="22" viewBox="0 0 23 22" fill="none" xmlns="http://www.w3.org/2000/svg">
<path d="M11.6369 0C9.01414 4.93155e-05 6.47994 0.948958 4.50216 2.67154C2.52438 4.39412 1.23657 6.77407 0.876475 9.372C0.577114 11.5721 0.953224 13.8112 1.95498 15.7927L0.52349 21.1343C0.492203 21.2509 0.492169 21.3737 0.523394 21.4903C0.554618 21.6069 0.615999 21.7133 0.701362 21.7986C0.786726 21.884 0.893063 21.9454 1.00968 21.9766C1.12629 22.0078 1.24907 22.0078 1.36567 21.9765L6.70728 20.5452C8.68882 21.5469 10.9279 21.923 13.128 21.6237C15.726 21.2636 18.1059 19.9757 19.8285 17.9979C21.5511 16.02 22.4999 13.4858 22.4999 10.863C22.4998 7.98193 21.3553 5.21892 19.3181 3.18172C17.281 1.14453 14.5179 3.4187e-05 11.6369 0ZM18.3459 17.572C16.5296 19.3884 14.081 20.341 11.6117 20.3409C10.0423 20.3432 8.4971 19.9535 7.11651 19.2072C6.96184 19.1232 6.78088 19.1018 6.6109 19.1474L2.15981 20.3401L3.35248 15.889C3.398 15.719 3.37661 15.538 3.29271 15.3834C1.3065 11.7206 1.97883 7.10297 4.92783 4.15397C8.62715 0.454605 14.6465 0.454391 18.3459 4.15397C22.0454 7.85354 22.0453 13.8726 18.3459 17.572ZM16.9595 7.59148C16.8152 7.507 16.6509 7.46248 16.4837 7.46248C16.3165 7.46248 16.1522 7.507 16.0079 7.59148L14.8657 8.25091C14.7642 7.85166 14.5327 7.49756 14.2076 7.24447C13.8826 6.99138 13.4825 6.8537 13.0706 6.85315H7.41592C6.92499 6.85371 6.45434 7.04898 6.10721 7.39611C5.76008 7.74325 5.56483 8.21391 5.56428 8.70483V13.2949C5.56483 13.7858 5.76008 14.2565 6.10721 14.6036C6.45434 14.9508 6.925 15.146 7.41592 15.1466H13.0706C13.4825 15.146 13.8826 15.0083 14.2076 14.7553C14.5327 14.5022 14.7642 14.1481 14.8657 13.7488L16.0078 14.4082C16.1525 14.4918 16.3166 14.5358 16.4837 14.5358C16.6508 14.5358 16.8149 14.4918 16.9596 14.4083C17.1043 14.3248 17.2244 14.2046 17.3079 14.0599C17.3915 13.9152 17.4355 13.7511 17.4354 13.5841V8.4157C17.4364 8.24843 17.3929 8.08392 17.3092 7.93907C17.2256 7.79422 17.1049 7.67424 16.9595 7.59148ZM13.5472 13.2949C13.5471 13.4213 13.4968 13.5424 13.4074 13.6318C13.3181 13.7212 13.1969 13.7714 13.0706 13.7716H7.41592C7.28955 13.7714 7.16839 13.7212 7.07904 13.6318C6.98968 13.5424 6.93941 13.4213 6.93927 13.2949V8.70487C6.93941 8.5785 6.98968 8.45734 7.07903 8.36798C7.16839 8.27862 7.28954 8.22834 7.41592 8.22818H13.0706C13.1969 8.22833 13.3181 8.2786 13.4075 8.36796C13.4968 8.45733 13.5471 8.57849 13.5472 8.70487V13.2949ZM16.0605 12.8509L14.9222 12.1937V9.80607L16.0605 9.14865V12.8509Z" fill="white"/>
</svg>
