<svg width="25" height="24" viewBox="0 0 25 24" fill="none" xmlns="http://www.w3.org/2000/svg">
<path d="M12.5427 18.8295C11.7199 19.1325 10.6752 19.5165 9.35369 20.0062C7.09695 19.6912 4.72545 18.957 3.7002 17.2717C4.0737 16.266 4.3992 15.3847 4.6872 14.607C6.61919 16.839 9.99494 18.2565 12.5427 18.8295Z" fill="white"/>
<path d="M13.1982 11.3017C11.0022 9.1065 8.17474 7.485 7.02199 8.64C6.77599 8.886 6.85024 8.739 5.14099 13.3777C6.96349 16.008 11.5685 17.8447 14.7762 18.006C15.7355 17.6452 15.713 17.6272 15.8607 17.4787C17.2745 16.065 14.6112 12.714 13.1982 11.3017ZM15.0642 16.6822C14.957 16.791 14.4582 16.7962 13.5725 16.359C12.6095 15.8827 11.5107 15.0525 10.4787 14.0205C8.08774 11.6295 7.52899 9.723 7.81699 9.435C7.86199 9.39 7.94599 9.366 8.06524 9.366C8.71099 9.366 10.3842 10.0792 12.4032 12.0975C13.4352 13.1295 14.2662 14.2282 14.7425 15.1912C15.1797 16.0755 15.1722 16.575 15.0642 16.6822Z" fill="white"/>
<path d="M7.29431 20.7705C5.99531 21.2535 4.49756 21.813 2.75831 22.4648C2.30606 22.6313 1.86806 22.1918 2.03531 21.7418C2.47331 20.5688 2.86856 19.5083 3.22856 18.5408C4.21706 19.6763 5.70356 20.3648 7.29431 20.7705Z" fill="white"/>
<path d="M15.2518 2.92126C14.9015 2.98276 14.5633 3.03826 14.3338 3.15376C14.6788 3.68326 15.3995 4.35751 14.9593 5.23801C14.5655 6.02551 13.7473 5.97901 13.037 6.00376C13.4728 6.59926 13.9768 7.20301 13.5883 7.98076C13.1855 8.78701 12.1295 8.95426 11.5063 9.05551C11.3045 9.08851 11.117 8.95351 11.0795 8.75326L10.943 8.01676C10.9048 7.81201 11.0428 7.61476 11.2475 7.57876C11.6023 7.51651 11.9345 7.46251 12.1655 7.34626C11.819 6.82051 11.1013 6.13951 11.5393 5.26276C11.9323 4.47751 12.7498 4.52176 13.4615 4.49701C13.025 3.90151 12.5218 3.29776 12.9103 2.52001C13.313 1.71451 14.3698 1.54651 14.9915 1.44526C15.1933 1.41226 15.3808 1.54726 15.4175 1.74751L15.554 2.48401C15.5938 2.68876 15.4573 2.88526 15.2518 2.92126Z" fill="white"/>
<path d="M22.0168 8.94375L22.7533 9.08025C22.9543 9.11775 23.0885 9.30525 23.0555 9.50625C22.9543 10.128 22.7863 11.1847 21.9808 11.5875C21.203 11.976 20.5993 11.4727 20.0038 11.0362C19.979 11.748 20.0233 12.5662 19.238 12.9585C18.3613 13.3965 17.6803 12.6787 17.1545 12.3322C17.0383 12.5632 16.9843 12.8955 16.922 13.2502C16.886 13.4557 16.6888 13.593 16.484 13.5547L15.7475 13.4182C15.5465 13.3807 15.4123 13.1932 15.4453 12.9915C15.5465 12.369 15.7145 11.313 16.52 10.9095C17.297 10.521 17.9015 11.025 18.497 11.4607C18.5218 10.7505 18.4753 9.9315 19.2628 9.5385C20.1433 9.09825 20.8175 9.819 21.347 10.164C21.4625 9.9345 21.518 9.59625 21.5795 9.246C21.6148 9.04275 21.8113 8.90625 22.0168 8.94375Z" fill="white"/>
<path d="M19.775 15.75H18.35C18.2255 15.75 18.125 15.6495 18.125 15.525V14.85C18.125 14.7255 18.2255 14.625 18.35 14.625H19.775C19.8995 14.625 20 14.7255 20 14.85V15.525C20 15.6495 19.8995 15.75 19.775 15.75Z" fill="white"/>
<path d="M21.341 2.45475L20.333 3.46275C20.2452 3.5505 20.1027 3.5505 20.015 3.46275L19.538 2.985C19.4502 2.89725 19.4502 2.75475 19.538 2.667L20.546 1.659C20.6337 1.57125 20.7762 1.57125 20.864 1.659L21.341 2.136C21.4287 2.22375 21.4287 2.36625 21.341 2.45475Z" fill="white"/>
<path d="M9.65 4.875H8.975C8.8505 4.875 8.75 4.7745 8.75 4.65V3.225C8.75 3.1005 8.8505 3 8.975 3H9.65C9.7745 3 9.875 3.1005 9.875 3.225V4.65C9.875 4.7745 9.7745 4.875 9.65 4.875Z" fill="white"/>
<path d="M15.0373 9.94126L14.4748 9.56626C14.369 9.49576 14.3383 9.35326 14.411 9.24901C15.9418 7.07101 18.893 4.80076 22.0153 4.69126C22.1435 4.68751 22.25 4.79401 22.25 4.92151V5.59726C22.25 5.71726 22.1555 5.81101 22.0355 5.81626C19.4233 5.91976 16.7473 7.88701 15.3395 9.88426C15.2698 9.98401 15.1378 10.0088 15.0373 9.94126Z" fill="white"/>
</svg>
