<svg width="23" height="22" viewBox="0 0 23 22" fill="none" xmlns="http://www.w3.org/2000/svg">
<path d="M19.2782 3.2218C17.2006 1.14421 14.4382 0 11.5 0C8.5618 0 5.79942 1.14421 3.7218 3.2218C1.64421 5.29947 0.5 8.0618 0.5 11C0.5 13.9382 1.64421 16.7005 3.7218 18.7782C5.79942 20.8558 8.5618 22 11.5 22C14.4382 22 17.2006 20.8558 19.2782 18.7782C21.3558 16.7005 22.5 13.9382 22.5 11C22.5 8.0618 21.3558 5.29947 19.2782 3.2218ZM21.2006 11.4449C21.0727 11.3613 20.9433 11.28 20.8123 11.2019C18.0128 9.5318 14.6741 9.18955 11.6014 10.2459C10.4003 9.20975 9.48863 7.9203 8.919 6.48618C10.1915 6.06551 11.5309 5.78145 12.9096 5.64098C15.364 5.39082 17.8088 5.61602 19.9977 6.292C20.7894 7.71616 21.2109 9.32559 21.2109 11C21.2109 11.1489 21.2072 11.2972 21.2006 11.4449ZM11.1696 20.7048C9.45628 20.6479 7.82007 20.149 6.39213 19.2625C8.17697 18.3253 9.65402 16.9261 10.7028 15.1681C11.3946 14.0084 11.8602 12.7565 12.091 11.4417C13.6031 10.9347 15.1856 10.81 16.7166 11.0567C16.426 12.365 15.9837 13.6608 15.3981 14.9169C14.3477 17.1696 12.8879 19.1666 11.1696 20.7048ZM18.3667 4.13334C18.5394 4.30603 18.7047 4.48413 18.8627 4.66714C16.924 4.25464 14.8527 4.14721 12.7789 4.35853C11.3106 4.50815 9.8827 4.81078 8.52424 5.25907C8.33389 4.49535 8.2345 3.70257 8.2345 2.89442C8.2345 2.53885 8.2541 2.18187 8.29243 1.82939C9.30988 1.47443 10.3906 1.28906 11.5 1.28906C14.0939 1.28906 16.5325 2.29917 18.3667 4.13334ZM4.63334 4.13334C5.32887 3.4378 6.11146 2.86107 6.95631 2.4127C6.94935 2.57327 6.94544 2.73397 6.94544 2.89442C6.94544 6.14075 8.35052 9.17138 10.8128 11.268C10.6061 12.4099 10.198 13.4981 9.59571 14.5077C9.40154 14.8332 9.19043 15.1445 8.96398 15.4413C8.01837 14.5362 7.15676 13.5133 6.39939 12.3946C4.9672 10.279 3.98868 7.93109 3.56952 5.60459C3.56015 5.55259 3.54416 5.50361 3.52367 5.45738C3.85057 4.98897 4.22092 4.54579 4.63334 4.13334ZM1.78906 11C1.78906 9.64674 2.06458 8.33598 2.58802 7.13101C3.12891 9.19849 4.0646 11.2453 5.33188 13.1172C6.15159 14.3281 7.08677 15.4347 8.11484 16.4128C7.28373 17.244 6.30602 17.9158 5.2132 18.4014C5.01404 18.2317 4.82038 18.0537 4.63334 17.8667C2.79917 16.0325 1.78906 13.5939 1.78906 11ZM18.3667 17.8667C16.9259 19.3074 15.112 20.2394 13.143 20.573C14.5083 19.1101 15.6763 17.3704 16.5663 15.4616C17.1901 14.1239 17.6616 12.7425 17.9726 11.3463C18.726 11.5741 19.4578 11.8949 20.1518 12.3089C20.4537 12.489 20.7469 12.686 21.0268 12.8966C20.6584 14.7676 19.7454 16.4879 18.3667 17.8667Z" fill="white"/>
</svg>
