<svg width="26" height="26" viewBox="0 0 26 26" fill="none" xmlns="http://www.w3.org/2000/svg">
<g clip-path="url(#clip0_1032_509)">
<path fill-rule="evenodd" clip-rule="evenodd" d="M17.6566 19.1647C18.3058 18.5116 19.3151 17.4082 19.9383 16.7302C20.5586 16.0554 27.2526 20.5891 25.7921 21.8965L22.3649 24.9647C15.818 30.8254 -4.8255 10.1818 1.03531 3.63503L4.10341 0.207749C5.41083 -1.25267 9.94458 5.44131 9.2697 6.06161C8.59171 6.68474 7.48829 7.69412 6.83524 8.34336C4.50728 10.6577 15.3423 21.4927 17.6566 19.1647ZM16.3724 2.35884L22.2636 2.51078L13.916 10.8584C13.5776 11.1968 13.5776 11.7455 13.916 12.0839C14.2544 12.4223 14.8031 12.4223 15.1415 12.0839L23.4891 3.73633L23.641 9.62752C23.6523 10.1043 24.0478 10.4817 24.5246 10.4705C25.0014 10.4593 25.3788 10.0637 25.3676 9.58689L25.1636 1.67924C25.1532 1.22083 24.7838 0.847135 24.3206 0.836268L16.413 0.63228C15.9362 0.621057 15.5406 0.998464 15.5294 1.47525C15.5182 1.95203 15.8956 2.34767 16.3724 2.35884Z" fill="#9135E8"/>
</g>
<defs>
<clipPath id="clip0_1032_509">
<rect width="26" height="26" fill="white"/>
</clipPath>
</defs>
</svg>
