<svg width="42" height="42" viewBox="0 0 42 42" fill="none" xmlns="http://www.w3.org/2000/svg">
<path d="M17.535 23.7431C18.6375 23.7431 19.681 23.4806 20.6063 23.0081V24.2616L18.2307 25.6331V26.4666L21.2953 29.0194C21.7812 28.068 23.0384 25.616 23.4937 24.7013L22.8178 23.6906C22.6209 23.4019 22.2403 23.31 21.9384 23.4872C21.8941 23.5763 21.9291 22.1329 21.9188 22.1485C23.1328 21.1313 23.9925 19.7006 24.2747 18.0731H24.5109C26.0334 18.0731 27.2738 16.8328 27.2738 15.2775C27.2738 14.6344 27.0572 14.0372 26.6766 13.5713V10.6641C26.6766 6.18845 22.575 2.54626 17.535 2.54626C12.4885 2.54626 8.38691 6.18845 8.38691 10.6641V13.5778C8.01284 14.0503 7.7897 14.6475 7.7897 15.3103C7.78263 16.9282 9.18833 18.1869 10.7954 18.0731C11.0775 19.7006 11.9372 21.1378 13.1513 22.155L13.1316 23.4872C12.8363 23.31 12.4491 23.4019 12.2588 23.6906L11.5828 24.7078C12.0342 25.6063 13.3071 28.0939 13.7813 29.0259L16.9182 26.4009V25.6791L14.4637 24.255V23.0147C15.3891 23.4806 16.4325 23.7431 17.535 23.7431ZM24.5109 16.7606H24.3731V13.8206C26.3679 13.7202 26.5213 16.6938 24.5109 16.7606ZM9.1022 15.2775C9.10146 14.4228 9.84573 13.7541 10.6969 13.8207C10.6969 13.8206 10.6969 16.7606 10.6969 16.7606C9.8473 16.8243 9.09913 16.1685 9.1022 15.2775ZM12.0094 16.905C12.0218 15.4348 12.0004 12.1733 12.0094 10.7297C15.1594 11.5303 17.7844 11.2087 19.845 9.75846C20.6522 10.126 21.6891 10.3556 23.0606 10.4738V16.905C22.8049 24.2193 12.2631 24.2201 12.0094 16.905Z" fill="#EE3E08"/>
<path d="M13.9912 30.555C13.6503 30.8474 13.0978 30.6887 12.9478 30.2728C12.509 29.4143 10.9772 26.4114 10.5656 25.6003L7.00873 26.6569C5.30249 27.1687 4.11469 28.7634 4.11469 30.5419V38.64C4.11469 39.0075 4.40996 39.2963 4.77094 39.2963H16.8722L16.9116 28.1203C16.8588 28.1696 14.0365 30.5036 13.9912 30.555Z" fill="#EE3E08"/>
<path d="M37.8262 34.2957C37.7475 34.1053 37.5834 33.9675 37.3931 33.915C38.762 32.0507 37.091 29.6042 34.7221 29.656C34.7222 29.656 30.8503 29.656 30.8503 29.656C30.5353 28.245 29.4787 27.0834 28.0678 26.6635L24.5044 25.6003C24.1121 26.3988 22.5267 29.498 22.0959 30.3516C21.9163 30.716 21.3943 30.8232 21.0853 30.555C21.0853 30.555 18.2241 28.1663 18.2241 28.1663C18.2241 28.1663 18.1838 38.9734 18.1847 39.2963C18.1847 39.2963 36.8516 39.3957 37.229 39.4538C37.7825 39.47 38.1008 38.7367 37.7015 38.3447C36.6122 37.1932 36.6078 36.1583 37.7016 35.0044C37.8853 34.8141 37.9312 34.5319 37.8262 34.2957ZM36.5728 32.4319C36.5728 33.2391 35.7394 33.8953 34.7222 33.8953C33.9966 33.8956 25.047 33.8951 24.6553 33.8953C24.7866 33.6328 24.885 33.3637 24.944 33.0881H30.3009C31.1584 33.0849 31.1598 31.7789 30.3009 31.7756H24.944C24.885 31.5 24.7866 31.2309 24.6553 30.9685H34.7222C35.7394 30.9685 36.5728 31.6247 36.5728 32.4319ZM25.8825 38.1413C23.5305 38.1244 23.359 35.2845 25.8825 35.2078C26.6045 35.2074 35.5603 35.2081 35.9494 35.2078C35.8112 35.4711 35.7124 35.7409 35.6536 36.0175H30.3009C29.4428 36.0209 29.4425 37.3267 30.301 37.33C30.3009 37.33 35.6548 37.33 35.6548 37.33C35.7139 37.6047 35.812 37.873 35.9494 38.1413H25.8825Z" fill="#EE3E08"/>
</svg>
