<svg width="42" height="42" viewBox="0 0 42 42" fill="none" xmlns="http://www.w3.org/2000/svg">
<path d="M9.35814 23.8199C10.2375 23.6513 10.8137 22.8014 10.645 21.9227L9.70923 17.0435C9.68364 16.9129 9.61932 16.7928 9.52679 16.6996C10.2854 16.3899 10.3963 15.227 9.70923 14.7788V9.70727L14.1553 11.4857V15.1535C14.1435 15.5965 14.4651 15.939 14.8444 16.1247C19.3528 18.8613 23.8613 18.9401 28.3697 16.361C28.8494 16.0932 29.4886 15.7979 29.4656 15.1535V11.4857L38.1019 8.03121L21.8105 1.51465L5.51907 8.03056L8.39673 9.18162V14.7781C8.11585 14.9822 7.93079 15.3116 7.93079 15.6851C7.93079 16.1385 8.20248 16.5277 8.59032 16.7049C8.49845 16.7961 8.42364 16.9063 8.39739 17.0435L7.46157 21.9227C7.23189 23.0141 8.25761 24.0568 9.35814 23.8199Z" fill="#4936F5"/>
<path d="M14.595 17.5022C14.238 21.5572 17.5074 25.1022 21.5775 25.0819C25.4494 25.0819 28.5863 21.945 28.5863 18.0731C28.5863 17.9616 28.5863 17.85 28.5797 17.745C26.3353 18.9525 24.0713 19.5563 21.8138 19.5563C19.3988 19.5563 16.9903 18.8738 14.595 17.5022Z" fill="#4936F5"/>
<path d="M25.1016 25.9481H24.2616C23.4216 26.2369 22.516 26.3944 21.5775 26.3944C20.6391 26.3944 19.7335 26.2369 18.8935 25.9481H18.0535C12.8231 25.9481 8.58377 30.1875 8.58377 35.4178V39.0731H34.5647V35.4178C34.5647 30.1875 30.3253 25.9481 25.1016 25.9481Z" fill="#4936F5"/>
</svg>
