<svg width="20" height="20" viewBox="0 0 20 20" fill="none" xmlns="http://www.w3.org/2000/svg">
<path d="M9.32599 0.614964C9.70781 0.266595 10.2922 0.266595 10.674 0.614964L11.9553 1.78403C12.1828 1.99162 12.4933 2.08279 12.797 2.03116L14.5069 1.74041C15.0165 1.65377 15.5081 1.96971 15.6409 2.4692L16.0868 4.14542C16.166 4.44306 16.3779 4.68761 16.6612 4.80834L18.2569 5.48821C18.7324 5.69081 18.9752 6.22238 18.8169 6.71442L18.2858 8.36559C18.1915 8.65878 18.2375 8.97908 18.4106 9.23383L19.3854 10.6685C19.6759 11.096 19.5928 11.6744 19.1936 12.0028L17.8541 13.1047C17.6162 13.3003 17.4818 13.5947 17.4897 13.9026L17.5341 15.6365C17.5474 16.1532 17.1647 16.5948 16.6514 16.6553L14.9287 16.858C14.6229 16.8941 14.3506 17.069 14.1908 17.3323L13.2908 18.815C13.0226 19.2568 12.4619 19.4215 11.9974 19.1948L10.4386 18.434C10.1618 18.299 9.8382 18.299 9.56142 18.434L8.00264 19.1948C7.53814 19.4215 6.97743 19.2568 6.70922 18.815L5.80917 17.3323C5.64935 17.069 5.37713 16.8941 5.07125 16.858L3.34864 16.6553C2.83533 16.5948 2.45264 16.1532 2.46588 15.6365L2.51032 13.9026C2.51821 13.5947 2.38379 13.3003 2.14593 13.1047L0.806411 12.0028C0.40725 11.6744 0.324084 11.096 0.614569 10.6685L1.58939 9.23383C1.76248 8.97908 1.80854 8.65878 1.71422 8.36559L1.18308 6.71442C1.0248 6.22238 1.26756 5.69081 1.74306 5.48821L3.33877 4.80834C3.62211 4.68761 3.83402 4.44306 3.91319 4.14542L4.35905 2.4692C4.49192 1.96971 4.98353 1.65377 5.49308 1.74041L7.20304 2.03116C7.50667 2.08279 7.81715 1.99162 8.04467 1.78403L9.32599 0.614964Z" fill="#B2FF97"/>
<path d="M8.9791 12.5796L6.52441 10.125L7.20035 9.44902L8.9791 11.2278L12.7995 7.40735L13.4755 8.08329L8.9791 12.5796Z" fill="#1A5710"/>
</svg>
