<svg width="22" height="14" viewBox="0 0 22 14" fill="none" xmlns="http://www.w3.org/2000/svg">
<path d="M11.001 1.65383C12.5816 2.89854 13.5965 4.82948 13.5965 6.99746C13.5965 9.16546 12.5816 11.0964 11.001 12.3411C9.4204 11.0964 8.40547 9.16546 8.40547 6.99746C8.40547 4.82948 9.4204 2.89854 11.001 1.65383ZM10.1316 1.07146C8.46024 2.50205 7.40098 4.62718 7.40098 6.99976C7.40098 9.37076 8.45891 11.4947 10.1285 12.9253C9.1444 13.4793 8.00847 13.7953 6.79873 13.7953C3.04443 13.7953 0.000976562 10.7518 0.000976562 6.99746C0.000976562 3.24317 3.04443 0.199707 6.79873 0.199707C8.00976 0.199707 9.1468 0.516387 10.1316 1.07146ZM11.8735 12.9253C13.543 11.4947 14.601 9.37076 14.601 6.99976C14.601 4.62718 13.5417 2.50205 11.8703 1.07146C12.8551 0.516387 13.9922 0.199707 15.2032 0.199707C18.9575 0.199707 22.001 3.24317 22.001 6.99746C22.001 10.7518 18.9575 13.7953 15.2032 13.7953C13.9935 13.7953 12.8576 13.4793 11.8735 12.9253Z" fill="white"/>
</svg>
